<?xml version="1.0" standalone="no"?>
<!DOCTYPE svg PUBLIC "-//W3C//DTD SVG 20010904//EN"
 "http://www.w3.org/TR/2001/REC-SVG-20010904/DTD/svg10.dtd">
<svg version="1.0" xmlns="http://www.w3.org/2000/svg"
 width="192.000000pt" height="192.000000pt" viewBox="0 0 192.000000 192.000000"
 preserveAspectRatio="xMidYMid meet">
<metadata>
Created by potrace 1.14, written by Peter Selinger 2001-2017
</metadata>
<g transform="translate(0.000000,192.000000) scale(0.100000,-0.100000)"
fill="#000000" stroke="none">
<path d="M0 1575 l0 -175 25 0 25 0 0 150 0 150 910 0 910 0 0 -740 0 -740
-785 0 -785 0 0 -25 0 -25 810 0 810 0 0 790 0 790 -960 0 -960 0 0 -175z"/>
<path d="M593 1483 c-37 -7 -53 -41 -53 -109 0 -71 18 -101 65 -110 22 -4 38
0 58 16 25 20 27 27 27 94 0 57 -4 76 -17 88 -22 19 -51 26 -80 21z m45 -101
c3 -43 -12 -77 -29 -66 -5 3 -9 30 -9 60 0 47 3 55 18 52 12 -2 18 -15 20 -46z"/>
<path d="M272 1373 l3 -108 57 0 c41 0 62 6 77 19 21 19 29 70 12 80 -5 3 -7
24 -4 46 8 58 -6 70 -84 70 l-64 0 3 -107z m98 42 c0 -8 -9 -15 -20 -15 -11 0
-20 7 -20 15 0 8 9 15 20 15 11 0 20 -7 20 -15z m3 -72 c9 -9 -12 -33 -29 -33
-8 0 -14 9 -14 20 0 19 28 28 43 13z"/>
<path d="M452 1373 c3 -108 3 -108 28 -108 25 0 25 0 28 108 l3 107 -31 0 -31
0 3 -107z"/>
<path d="M293 1213 c-15 -6 -17 -39 -3 -48 6 -3 15 -3 21 1 8 4 7 9 -2 15 -7
4 -10 11 -6 15 3 4 15 -4 26 -17 16 -20 21 -21 35 -10 9 7 16 10 16 5 0 -11
75 -12 86 -2 4 4 13 3 20 -3 17 -14 34 -3 34 21 0 25 -21 31 -44 11 -11 -9
-16 -10 -12 -3 7 11 -6 17 -29 12 -33 -6 -62 -5 -72 3 -9 6 -18 6 -26 -2 -8
-6 -18 -7 -23 -2 -5 5 -15 6 -21 4z m67 -23 c0 -5 -4 -10 -10 -10 -5 0 -10 5
-10 10 0 6 5 10 10 10 6 0 10 -4 10 -10z m145 0 c3 -5 1 -10 -4 -10 -6 0 -11
5 -11 10 0 6 2 10 4 10 3 0 8 -4 11 -10z"/>
<path d="M531 1188 c0 -18 3 -27 6 -20 4 10 8 10 19 1 11 -9 14 -9 14 0 0 7 5
9 13 4 17 -11 57 -11 57 0 0 5 7 4 16 -3 12 -11 18 -10 32 4 16 16 16 18 -2
32 -12 8 -24 10 -29 5 -5 -5 -22 -5 -38 -1 -17 5 -31 5 -34 -1 -4 -5 -14 -5
-25 1 -28 15 -30 13 -29 -22z m89 2 c0 -5 -7 -10 -15 -10 -8 0 -15 5 -15 10 0
6 7 10 15 10 8 0 15 -4 15 -10z m60 0 c0 -5 -4 -10 -10 -10 -5 0 -10 5 -10 10
0 6 5 10 10 10 6 0 10 -4 10 -10z"/>
<path d="M726 1213 c-3 -3 -6 -17 -6 -30 0 -25 19 -30 38 -11 9 9 12 9 12 0 0
-7 9 -12 20 -12 15 0 20 7 20 24 0 29 -17 43 -32 28 -7 -7 -17 -8 -28 -2 -10
5 -20 6 -24 3z"/>
<path d="M834 1205 c-11 -29 2 -40 49 -40 40 0 46 3 41 18 -3 9 -1 17 5 17 5
0 12 -10 14 -22 l4 -23 2 23 c1 24 21 31 21 8 0 -24 20 -29 41 -10 16 14 20
15 17 4 -2 -8 4 -15 12 -15 19 0 22 42 4 49 -7 3 -16 1 -19 -5 -4 -5 -12 -6
-18 -2 -21 13 -109 10 -114 -4 -4 -10 -8 -9 -20 2 -18 19 -32 19 -39 0z m166
-15 c0 -5 -4 -10 -10 -10 -5 0 -10 5 -10 10 0 6 5 10 10 10 6 0 10 -4 10 -10z"/>
<path d="M272 993 l3 -108 57 0 c76 1 91 16 96 97 3 53 1 67 -18 91 -19 24
-28 27 -81 27 l-60 0 3 -107z m96 0 c-2 -46 -7 -59 -20 -61 -16 -3 -18 5 -18
57 0 55 2 61 20 61 19 0 21 -5 18 -57z"/>
<path d="M460 990 l0 -110 25 0 25 0 0 110 0 110 -25 0 -25 0 0 -110z"/>
<path d="M551 1003 c11 -54 21 -104 24 -110 2 -8 21 -13 44 -13 l39 0 17 98
c10 53 20 103 22 110 4 8 -5 12 -25 12 -30 0 -31 -1 -43 -77 l-13 -78 -8 45
c-19 115 -17 110 -47 110 l-28 0 18 -97z"/>
<path d="M720 990 l0 -111 63 3 c56 3 62 5 65 26 3 20 -1 22 -37 22 -34 0 -41
3 -41 20 0 16 7 20 35 20 31 0 35 3 35 25 0 22 -4 25 -35 25 -50 0 -48 28 3
32 30 2 38 7 40 26 3 21 0 22 -62 22 l-66 0 0 -110z"/>
<path d="M860 989 l0 -110 28 3 c22 2 28 9 32 37 l5 34 17 -36 c14 -28 24 -37
43 -37 29 0 31 10 10 51 -14 27 -14 32 0 51 21 31 19 74 -5 98 -15 15 -33 20
-75 20 l-55 0 0 -111z m88 39 c-5 -32 -28 -35 -28 -4 0 17 5 26 16 26 10 0 14
-7 12 -22z"/>
<path d="M1047 1082 c-36 -39 -9 -97 54 -117 22 -7 26 -35 4 -35 -8 0 -19 9
-25 20 -10 19 -40 27 -53 14 -3 -3 -1 -18 4 -34 20 -55 103 -64 135 -15 24 37
11 71 -36 95 -40 20 -53 40 -26 40 8 0 17 -7 20 -16 4 -9 15 -14 28 -12 18 2
22 9 20 28 -1 14 -10 31 -19 38 -25 18 -87 15 -106 -6z"/>
<path d="M1202 993 l3 -108 28 -3 27 -3 0 110 0 111 -30 0 -31 0 3 -107z"/>
<path d="M280 805 c0 -27 18 -33 38 -13 9 9 12 9 12 0 0 -7 9 -12 20 -12 15 0
19 6 18 25 -2 26 -32 36 -41 13 -4 -10 -6 -10 -6 0 -1 6 -10 12 -21 12 -15 0
-20 -7 -20 -25z"/>
<path d="M390 806 c0 -24 3 -25 58 -23 51 2 57 4 60 25 3 20 0 22 -30 20 -18
-1 -36 -7 -40 -13 -5 -6 -8 -6 -8 3 0 6 -9 12 -20 12 -15 0 -20 -7 -20 -24z
m105 4 c3 -5 1 -10 -4 -10 -6 0 -11 5 -11 10 0 6 2 10 4 10 3 0 8 -4 11 -10z"/>
<path d="M520 804 c0 -33 33 -30 38 4 3 17 -2 22 -17 22 -16 0 -21 -6 -21 -26z
m25 6 c3 -5 1 -10 -4 -10 -6 0 -11 5 -11 10 0 6 2 10 4 10 3 0 8 -4 11 -10z"/>
<path d="M570 802 c1 -26 1 -26 15 -8 13 17 15 18 15 3 0 -24 15 -21 28 6 l11
22 0 -23 c1 -21 5 -23 39 -21 21 2 40 10 44 19 6 13 7 13 7 -1 1 -15 15 -17
104 -15 95 1 102 2 102 21 0 13 -8 21 -22 23 -17 2 -23 -2 -23 -15 -1 -17 -1
-17 -11 0 -5 9 -14 17 -19 17 -6 0 -10 -8 -10 -17 -1 -17 -1 -17 -11 0 -12 20
-69 24 -69 5 0 -10 -2 -10 -8 -2 -4 8 -41 12 -99 12 l-93 1 0 -27z"/>
<path d="M274 707 c-3 -8 -3 -56 -2 -108 l3 -94 52 -3 c45 -3 56 1 78 22 21
21 25 34 25 86 0 82 -26 110 -100 110 -33 0 -52 -5 -56 -13z m94 -94 c-2 -46
-7 -59 -20 -61 -16 -3 -18 5 -18 57 0 55 2 61 20 61 19 0 21 -5 18 -57z"/>
<path d="M471 683 c-12 -45 -41 -172 -41 -179 0 -2 14 -4 30 -4 23 0 30 4 30
20 0 15 7 20 24 20 16 0 27 -7 31 -20 4 -13 15 -20 32 -20 24 0 25 2 20 38 -4
20 -14 70 -23 110 l-16 72 -39 0 c-36 0 -39 -2 -48 -37z m59 -80 c0 -7 -4 -13
-10 -13 -5 0 -10 12 -10 28 0 21 2 24 10 12 5 -8 10 -21 10 -27z"/>
<path d="M590 695 c0 -20 5 -25 25 -25 25 0 25 -1 25 -85 0 -84 0 -85 25 -85
25 0 25 1 25 85 0 84 0 85 25 85 20 0 25 5 25 25 0 24 -2 25 -75 25 -73 0 -75
-1 -75 -25z"/>
<path d="M765 708 c-5 -14 -45 -195 -45 -203 0 -3 14 -5 30 -5 23 0 30 4 30
20 0 14 7 20 24 20 15 0 26 -7 29 -20 3 -14 14 -20 31 -20 31 0 32 1 4 123
l-21 97 -39 0 c-22 0 -41 -5 -43 -12z m49 -90 c4 -17 2 -28 -4 -28 -5 0 -10
14 -10 32 0 36 4 35 14 -4z"/>
<path d="M280 424 c0 -26 18 -32 38 -12 9 9 12 9 12 0 0 -7 16 -12 40 -12 22
0 40 5 40 10 0 6 -4 10 -10 10 -5 0 -10 7 -10 15 0 11 -13 14 -55 14 -51 -1
-55 -3 -55 -25z"/>
<path d="M432 428 c3 -20 9 -23 46 -24 31 0 42 3 42 15 0 12 3 11 13 -4 17
-22 37 -12 36 18 0 21 -1 21 -9 2 -6 -15 -9 -16 -9 -4 -1 24 -88 26 -94 2 -4
-17 -5 -17 -6 0 0 9 -6 17 -12 17 -6 0 -9 -10 -7 -22z"/>
<path d="M580 430 c0 -23 31 -41 38 -22 2 7 9 9 15 5 15 -10 87 -11 87 -2 0
16 -13 39 -21 39 -5 0 -14 -10 -19 -22 -9 -23 -9 -23 -10 2 -1 23 -2 23 -10 5
-7 -17 -9 -17 -9 -2 -1 20 -17 23 -24 5 -4 -10 -6 -10 -6 0 -2 22 -41 14 -41
-8z"/>
<path d="M726 428 c3 -13 8 -25 10 -27 6 -6 11 1 18 27 6 18 4 22 -14 22 -18
0 -20 -4 -14 -22z"/>
</g>
</svg>
