<?xml version="1.0" encoding="UTF-8" standalone="no"?>
<svg
   sodipodi:docname="linkedin.svg"
   inkscape:version="1.2.1 (9c6d41e, 2022-07-14)"
   id="svg8"
   version="1.1"
   viewBox="0 0 448 512"
   height="512"
   width="448"
   xml:space="preserve"
   xmlns:inkscape="http://www.inkscape.org/namespaces/inkscape"
   xmlns:sodipodi="http://sodipodi.sourceforge.net/DTD/sodipodi-0.dtd"
   xmlns="http://www.w3.org/2000/svg"
   xmlns:svg="http://www.w3.org/2000/svg"
   xmlns:rdf="http://www.w3.org/1999/02/22-rdf-syntax-ns#"
   xmlns:cc="http://creativecommons.org/ns#"
   xmlns:dc="http://purl.org/dc/elements/1.1/"><title
     id="title1605">ResearchGate</title><defs
     id="defs2" /><sodipodi:namedview
     inkscape:window-maximized="1"
     inkscape:window-y="25"
     inkscape:window-x="0"
     inkscape:window-height="786"
     inkscape:window-width="1440"
     inkscape:guide-bbox="true"
     showguides="true"
     units="px"
     showgrid="true"
     inkscape:document-rotation="0"
     inkscape:current-layer="layer6"
     inkscape:document-units="px"
     inkscape:cy="282.77419"
     inkscape:cx="201.49092"
     inkscape:zoom="0.8734885"
     inkscape:pageshadow="2"
     inkscape:pageopacity="0.0"
     borderopacity="1.0"
     bordercolor="#666666"
     pagecolor="#ffffff"
     id="base"
     inkscape:showpageshadow="2"
     inkscape:pagecheckerboard="0"
     inkscape:deskcolor="#d1d1d1"><inkscape:grid
       empspacing="4"
       id="grid10"
       type="xygrid" /><sodipodi:guide
       inkscape:color="rgb(0,0,255)"
       inkscape:locked="false"
       inkscape:label=""
       id="guide832"
       orientation="0,1"
       position="448,416" /><sodipodi:guide
       inkscape:color="rgb(0,0,255)"
       inkscape:locked="false"
       inkscape:label=""
       id="guide834"
       orientation="0,1"
       position="448,96" /><sodipodi:guide
       inkscape:color="rgb(0,0,255)"
       inkscape:locked="false"
       inkscape:label="baseline"
       id="guide836"
       orientation="0,1"
       position="448,64" /><sodipodi:guide
       position="64,512"
       orientation="1,0"
       id="guide835"
       inkscape:locked="false" /><sodipodi:guide
       position="384,512"
       orientation="1,0"
       id="guide837"
       inkscape:locked="false" /></sodipodi:namedview><metadata
     id="metadata5"><rdf:RDF><cc:Work
         rdf:about=""><dc:format>image/svg+xml</dc:format><dc:type
           rdf:resource="http://purl.org/dc/dcmitype/StillImage" /><dc:title>ResearchGate</dc:title><cc:license
           rdf:resource="http://scripts.sil.org/OFL" /><dc:subject><rdf:Bag><rdf:li>ResearchGate</rdf:li></rdf:Bag></dc:subject></cc:Work><cc:License
         rdf:about="http://scripts.sil.org/OFL"><cc:permits
           rdf:resource="http://scripts.sil.org/pub/OFL/Reproduction" /><cc:permits
           rdf:resource="http://scripts.sil.org/pub/OFL/Distribution" /><cc:permits
           rdf:resource="http://scripts.sil.org/pub/OFL/Embedding" /><cc:permits
           rdf:resource="http://scripts.sil.org/pub/OFL/DerivativeWorks" /><cc:requires
           rdf:resource="http://scripts.sil.org/pub/OFL/Notice" /><cc:requires
           rdf:resource="http://scripts.sil.org/pub/OFL/Attribution" /><cc:requires
           rdf:resource="http://scripts.sil.org/pub/OFL/ShareAlike" /><cc:requires
           rdf:resource="http://scripts.sil.org/pub/OFL/DerivativeRenaming" /><cc:requires
           rdf:resource="http://scripts.sil.org/pub/OFL/BundlingWhenSelling" /></cc:License></rdf:RDF></metadata><g
     inkscape:label="icon"
     id="layer6"
     inkscape:groupmode="layer"><path
       style="fill:#2867b2;fill-opacity:1;stroke-width:1"
       d="m 22.445095,478.68074 c -4.72828,-1.48178 -11.28233,-5.75715 -14.57547,-9.50792 -1.46502,-1.66854 -3.83506,-5.50557 -5.26678,-8.52666 L -4.9999999e-6,455.15323 V 255.85875 56.564302 L 3.164675,50.160742 c 3.60146,-7.286868 8.2482,-11.907708 15.61,-15.52309 l 4.71596,-2.315926 H 224.00003 424.50936 l 4.71596,2.315926 c 7.3618,3.615382 12.00854,8.236222 15.61,15.52309 L 448,56.564302 V 255.90227 455.24025 l -3.16468,6.40356 c -3.60146,7.28687 -8.2482,11.90771 -15.61,15.52309 l -4.71596,2.31593 -199.2509,0.1573 C 61.415695,479.76938 25.374345,479.59893 22.445095,478.68084 Z M 132.97379,307.07831 V 199.69253 H 99.415735 65.857685 v 107.38578 107.38578 h 33.55805 33.558055 z m 108.44758,45.09364 c 0.34659,-69.24669 0.27266,-68.26852 6.06615,-80.04273 3.78891,-7.70037 9.96491,-13.50943 17.33641,-16.30633 4.5877,-1.7408 6.76162,-2.018 15.8244,-2.018 10.21187,0 10.66464,0.0784 16.18573,2.79694 9.32312,4.59087 14.38829,12.63484 16.99191,26.98584 0.89427,4.92863 1.14805,19.79091 1.17086,68.58428 l 0.0288,62.29214 h 33.60788 33.60787 l -0.33559,-73.61799 c -0.32456,-71.16072 -0.39613,-73.93576 -2.14588,-83.1383 -3.96849,-20.87067 -9.58371,-33.00267 -20.26985,-43.79541 -11.82004,-11.93784 -25.30776,-17.43971 -47.37035,-19.32339 -22.68839,-1.93709 -38.95749,2.10346 -54.5622,13.55072 -5.38266,3.94871 -12.99771,11.97503 -16.29689,17.17703 l -2.57951,4.06758 v -14.8459 -14.8459 h -32.29959 -32.29963 v 107.38578 107.38578 h 33.51375 33.51348 z M 111.08477,168.73978 c 27.65498,-8.6072 36.1664,-43.68805 15.59165,-64.26287 -7.74719,-7.747078 -16.30214,-11.290188 -27.260685,-11.290188 -21.87592,0 -38.59176,16.664568 -38.59176,38.473218 0,17.2739 10.50839,31.88117 26.64667,37.04015 6.53726,2.08975 16.970935,2.10729 23.614125,0.0396 z"
       id="path554"
       sodipodi:nodetypes="ssscccsscccsscccsscssscccccccccssssssscccsssssscccccccccssssssss" /></g></svg>
