<?xml version="1.0" encoding="UTF-8" standalone="no"?>
<svg
   viewBox="0 0 512 512"
   version="1.1"
   id="svg451"
   sodipodi:docname="naturalistauy.svg"
   inkscape:version="1.2.1 (9c6d41e, 2022-07-14)"
   xml:space="preserve"
   xmlns:inkscape="http://www.inkscape.org/namespaces/inkscape"
   xmlns:sodipodi="http://sodipodi.sourceforge.net/DTD/sodipodi-0.dtd"
   xmlns="http://www.w3.org/2000/svg"
   xmlns:svg="http://www.w3.org/2000/svg"><defs
     id="defs455" /><sodipodi:namedview
     id="namedview453"
     pagecolor="#ffffff"
     bordercolor="#666666"
     borderopacity="1.0"
     inkscape:showpageshadow="2"
     inkscape:pageopacity="0.0"
     inkscape:pagecheckerboard="0"
     inkscape:deskcolor="#d1d1d1"
     showgrid="false"
     inkscape:zoom="0.51949697"
     inkscape:cx="132.82079"
     inkscape:cy="207.89342"
     inkscape:window-width="1309"
     inkscape:window-height="456"
     inkscape:window-x="0"
     inkscape:window-y="25"
     inkscape:window-maximized="0"
     inkscape:current-layer="svg451" /><!--! Font Awesome Pro 6.4.0 by @fontawesome - https://fontawesome.com License - https://fontawesome.com/license (Commercial License) Copyright 2023 Fonticons, Inc. --><path
     d="m 366.54738,30.675225 c 4.17983,0 7.75886,5.066424 10.51805,11.004254 l 0.57864,1.284193 c 0.0943,0.215668 0.18768,0.432229 0.27976,0.649236 l 0.54008,1.307001 v 0 l 0.51377,1.310761 v 0 l 0.48705,1.305315 v 0 l 0.45975,1.290727 v 0 l 0.43202,1.266937 v 0 l 0.59508,1.835773 v 0 l 0.52989,1.730667 v 0 l 0.46327,1.59462 v 0 l 0.27098,0.972226 v 0 c 6.49811,1.241287 13.99289,3.275594 21.99901,5.909355 l 3.02533,1.015383 v 0 l 3.06757,1.069313 c 5.1447,1.825896 10.44171,3.867046 15.77259,6.076167 l 3.2017,1.345283 v 0 l 3.20414,1.383309 c 4.80516,2.1024 9.59934,4.325573 14.29624,6.635052 l 3.11593,1.552055 c 2.58301,1.303437 5.13004,2.63113 7.62632,3.977208 l 2.97018,1.623724 v 0 l 2.91581,1.639091 c 22.13124,12.619525 38.96279,26.394175 38.96279,36.724175 0,26.07103 -10.53862,45.64667 -21.56796,58.13964 l -1.227,1.35892 c -3.68397,3.98916 -7.38112,7.18896 -10.71931,9.57761 l -1.09886,0.76613 c -0.36155,0.24538 -0.71814,0.48067 -1.0693,0.70589 l -1.03657,0.64546 c -0.67942,0.41009 -1.335,0.77979 -1.96269,1.10883 l -0.92,0.46303 c -2.09541,1.00915 -3.82362,1.51884 -5.0095,1.51884 -6.37945,0 -12.08521,-2.02385 -18.0601,-4.48768 l -6.09947,-2.55182 v 0 l -2.1092,-0.85496 c -7.11143,-2.8245 -15.07222,-5.3231 -25.17553,-5.3231 l -0.8453,0.007 v 0 l -0.838,0.026 v 0 l -0.83024,0.0457 v 0 l -0.82212,0.0676 c -0.13616,0.0123 -0.27227,0.0274 -0.40789,0.0425 l -0.80914,0.10424 c -0.26824,0.0392 -0.53493,0.0828 -0.80003,0.131 l -0.79046,0.15971 c -7.20117,1.60339 -13.14914,7.09667 -16.45061,23.44904 l -0.34965,1.82729 v 0 l -0.32817,1.91549 c -0.0527,0.32669 -0.10498,0.65717 -0.15598,0.99144 l -0.29531,2.05147 c -0.14216,1.04888 -0.27584,2.13271 -0.40091,3.25262 l -0.23874,2.28823 c -0.0376,0.38949 -0.0748,0.78311 -0.11044,1.18082 l -0.20324,2.43633 v 0 l -0.1793,2.53756 c -0.0558,0.86295 -0.10746,1.74313 -0.155,2.64081 l -0.12998,2.74605 c -0.0393,0.93314 -0.074,1.88412 -0.105,2.85334 l -0.0792,2.96259 c -0.01,0.503 -0.0198,1.0106 -0.0301,1.52291 l -0.0398,3.1303 v 0 l -0.0172,4.34391 v 0 l -0.0506,3.89696 v 0 l -0.0559,2.64663 v 0 l -0.0738,2.48264 v 0 l -0.0587,1.40427 c -0.01,0.21073 -0.022,0.40836 -0.0318,0.59099 l -0.034,0.50084 c 0.0124,19.22374 -3.994,35.29304 -9.36795,50.42597 l -1.05647,2.91787 c -0.35741,0.9691 -0.71977,1.93491 -1.08638,2.89803 l -1.112,2.88181 v 0 l -1.13337,2.86913 v 0 l -1.73073,4.28779 v 0 l -4.34768,10.58057 -2.21289,5.45754 v 0 l -1.09042,2.74927 c -0.18052,0.45961 -0.36043,0.91995 -0.53961,1.38109 l -1.06569,2.77703 v 0 l -1.04474,2.7993 c -6.19811,16.869 -11.06579,35.10802 -11.06579,57.68698 0,13.43085 1.50735,24.16626 3.52229,33.90434 l 0.56134,2.6324 v 0 l 0.58203,2.5906 v 0 l 0.90191,3.82426 v 0 l 2.46725,10.01892 12.59543,5.36542 c 4.83213,2.05843 8.0289,6.70735 8.25105,11.92065 l 0.0124,0.58149 h -42.40699 c -6.96897,0 -13.23696,-4.17033 -15.94843,-10.54477 l -0.24363,-0.60399 -10.89141,-28.51745 -13.27792,7.93791 c 2.70984,-3.08722 4.24564,-9.45219 5.08031,-16.70474 l 0.20203,-1.91053 c 0.0313,-0.32124 0.0612,-0.64379 0.0896,-0.96741 l 0.15797,-1.95327 v 0 l 0.13072,-1.96992 c 0.0199,-0.32921 0.0383,-0.65871 0.0557,-0.98832 l 0.0935,-1.97729 v 0 l 0.0988,-2.95013 v 0 l 0.022,-0.97445 -16.41125,9.8124 c 2.38114,-2.71301 3.85614,-7.95647 4.74535,-14.10875 l 0.23846,-1.78113 v 0 l 0.20826,-1.82216 c 0.0322,-0.30667 0.0634,-0.61468 0.0933,-0.92387 l 0.16595,-1.86802 v 0 l 0.13987,-1.88806 c 0.022,-0.31586 0.0415,-0.63224 0.0607,-0.94891 l 0.10396,-1.90238 v 0 l 0.082,-1.9014 v 0 l 0.0616,-1.89203 v 0 l 0.0431,-1.87425 v 0 l 0.0264,-1.84809 v 0 l 0.0123,-2.70465 v 0 c -10.89204,13.48177 -29.95559,27.43697 -53.27173,37.44466 l -1.56066,0.66127 -3.05338,-10.76167 -6.86623,3.0021 v 0 l -9.31285,4.02678 v 0 l -12.60228,5.36913 v 0 l -9.39596,3.9447 v 0 l -11.76999,4.87157 v 0 l -12.76163,5.19217 v 0 l -9.88871,3.95343 v 0 l -9.58192,3.75457 43.94134,8.9198 c 9.03615,1.83426 16.41803,8.2856 19.46429,16.94746 l 0.24934,0.74781 H 95.964919 c -6.542707,0 -11.955995,-5.09081 -12.357307,-11.62121 -0.993865,-16.17259 -4.556759,-29.96563 -10.688722,-41.37913 -5.611784,7.35872 -13.214087,12.21436 -20.437887,15.40318 l -1.349434,0.57857 v 0 l -1.337105,0.54075 v 0 l -1.321284,0.5041 c -0.437441,0.16194 -0.87162,0.31826 -1.302026,0.46872 l -1.279265,0.43458 c -0.211219,0.0696 -0.421138,0.13793 -0.630018,0.20478 l -1.238613,0.38559 v 0 l -1.20721,0.35451 v 0 l -1.172294,0.32463 v 0 l -1.685438,0.43359 v 0 l -1.587388,0.37327 v 0 l -1.477655,0.31709 v 0 l -1.356171,0.26498 v 0 l -1.599062,0.27947 v 0 l -1.334526,0.20402 v 0 l -1.615433,0.20503 v 0 l -0.571533,0.0568 v 0 c 0.520901,-2.10344 0.995972,-4.20983 1.428669,-6.31229 l 0.499151,-2.52062 c 0.239677,-1.25892 0.464532,-2.51543 0.675424,-3.76802 l 0.403411,-2.49953 c 0.0641,-0.41556 0.126787,-0.83062 0.188188,-1.24505 l 0.349978,-2.47893 c 0.05543,-0.4118 0.109444,-0.8229 0.162184,-1.23322 L 34.42312,427.152 v 0 l 0.267645,-2.43133 v 0 l 0.236953,-2.40764 c 0.03715,-0.39914 0.07276,-0.79719 0.107481,-1.19411 l 0.193626,-2.36713 v 0 l 0.16639,-2.33682 v 0 l 0.140646,-2.30383 v 0 l 0.116133,-2.26822 v 0 l 0.09287,-2.22994 v 0 l 0.07102,-2.189 v 0 l 0.05043,-2.14544 v 0 l 0.04033,-3.13058 v 0 l 0.0019,-3.01762 v 0 l -0.03214,-2.89566 v 0 l -0.06188,-2.7648 v 0 l -0.08662,-2.62492 v 0 l -0.06958,-1.66782 v 0 l -0.160702,-3.12664 v 0 l -0.181009,-2.83022 v 0 l -0.190421,-2.51264 v 0 l -0.234981,-2.66182 v 0 l -0.211959,-2.09092 v 0 L 34.385933,373.48523 12.951227,396.3291 C 10.652459,380.81475 9.6246701,366.23831 9.6246701,352.54371 9.6246701,274.48312 60.634148,213.0742 129.6457,179.4898 l 1.18414,-0.1778 v 0 l 2.33302,-0.32939 v 0 l 2.28541,-0.29553 v 0 l 2.23702,-0.26306 v 0 l 2.18775,-0.23202 c 0.3605,-0.0362 0.7189,-0.0711 1.0752,-0.10473 l 2.11241,-0.18794 v 0 l 2.06124,-0.16021 v 0 l 2.00919,-0.13396 v 0 l 1.95637,-0.10895 v 0 l 1.90276,-0.0854 v 0 l 1.84832,-0.0631 c 0.30348,-0.01 0.60465,-0.0174 0.90352,-0.0248 l 1.7652,-0.0323 v 0 l 1.70878,-0.0148 v 0 l 1.65157,0.005 v 0 l 1.59354,0.0197 v 0 l 1.53473,0.0342 v 0 l 1.47512,0.0476 v 0 l 1.41468,0.0594 v 0 l 1.3535,0.0699 v 0 l 1.91368,0.12157 v 0 l 1.77148,0.13743 v 0 l 1.62652,0.14882 v 0 l 1.93859,0.20774 v 0 l 1.66974,0.20849 v 0 l 1.98654,0.29018 v 0 l 2.1152,0.38118 v 0 c -4.16444,-5.3471 -9.20509,-10.05333 -14.37402,-13.73478 l 2.46372,-0.79347 v 0 l 4.99345,-0.72441 v 0 l 6.05012,-0.84526 v 0 l 6.96056,-0.92867 v 0 l 6.61115,-0.83862 v 0 l 7.23943,-0.86931 v 0 l 7.6024,-0.85667 v 0 l 7.62918,-0.7994 v 0 l 8.51567,-0.81528 v 0 l 11.49265,-0.94006 v 0 l 0.91078,-0.0617 v 0 c -8.09404,-4.61133 -19.84777,-5.85939 -29.97568,-5.89632 22.7183,-10.53831 39.71842,-23.69359 54.32743,-36.85896 l 2.55393,-2.32286 v 0 l 2.50833,-2.31992 v 0 l 2.46682,-2.31375 v 0 l 3.63124,-3.45208 v 0 l 10.52499,-10.122722 v 0 l 2.28996,-2.181496 v 0 l 2.28095,-2.149882 v 0 l 2.276,-2.115048 v 0 l 2.27515,-2.077052 c 1.51731,-1.37132 3.03677,-2.715198 4.56379,-4.027394 -0.0415,-4.801235 0.50648,-9.673681 1.48124,-14.346717 l 0.36149,-1.640584 v 0 l 0.39531,-1.621389 c 0.54902,-2.147871 1.18408,-4.237471 1.88835,-6.24064 l 0.5409,-1.485698 v 0 l 0.56517,-1.450657 c 0.4807,-1.193518 0.98515,-2.347767 1.50914,-3.455855 l 0.63792,-1.307099 c 0.86237,-1.712097 1.77068,-3.298947 2.70791,-4.732371 l 0.70808,-1.045863 c 3.32726,-4.74233 6.95744,-7.518787 10.16495,-7.120382 4.00514,0.496766 7.81009,5.017772 10.88816,10.12827 l 0.75406,1.287936 v 0 l 0.72196,1.300556 v 0 l 0.68805,1.301256 c 0.11168,0.216171 0.2221,0.432091 0.33069,0.647166 l 0.63366,1.279981 v 0 l 0.59522,1.250865 v 0 l 0.55479,1.209809 v 0 l 0.51269,1.156872 v 0 l 0.46863,1.091999 v 0 l 0.61649,1.490227 v 0 c 6.05511,-1.872836 12.58332,-3.124099 19.73782,-3.634876 l 0.28343,-1.13907 v 0 l 0.30721,-1.18683 v 0 l 0.33097,-1.226572 v 0 l 0.35454,-1.258268 v 0 l 0.37815,-1.281944 v 0 l 0.40149,-1.297612 v 0 l 0.42491,-1.305264 v 0 l 0.44808,-1.304868 v 0 l 0.47123,-1.296475 c 0.0805,-0.214929 0.16194,-0.429191 0.24416,-0.642579 l 0.50574,-1.268844 v 0 l 0.52868,-1.240362 v 0 l 0.55139,-1.203893 c 2.34518,-4.929076 5.28107,-8.699278 8.77589,-8.699278 z m 111.84098,89.458535 -0.94396,0.007 v 0 l -0.99483,0.0223 v 0 l -1.03646,0.0416 v 0 l -1.06881,0.0617 v 0 l -1.09192,0.0837 c -0.36683,0.0318 -0.7359,0.0676 -1.1058,0.10771 l -1.11037,0.13373 c -0.18496,0.0247 -0.36963,0.0503 -0.55404,0.0772 l -1.09995,0.1763 c -4.91525,0.86117 -9.2687,2.66086 -9.2687,6.20773 0,4.9173 2.42217,11.40469 5.60213,17.28058 l 0.74657,1.34413 c 1.01126,1.77504 2.08224,3.4763 3.16429,5.04023 l 0.8129,1.14621 c 0.5423,0.74563 1.08439,1.45299 1.6201,2.11407 l 0.79821,0.95596 v 0 l 0.78409,0.88063 c 2.0684,2.24253 3.93892,3.61804 5.22374,3.61804 1.44567,0 3.06575,-1.87964 4.61268,-4.84922 l 0.51263,-1.02915 c 0.16961,-0.35578 0.33824,-0.72392 0.50515,-1.10336 l 0.49567,-1.17112 c 0.0817,-0.20056 0.16291,-0.4035 0.24363,-0.60892 l 0.47763,-1.26056 v 0 l 0.46305,-1.31199 c 0.0757,-0.2226 0.15102,-0.44708 0.22533,-0.67328 l 0.43735,-1.37708 v 0 l 0.41765,-1.41227 c 0.0678,-0.23796 0.13493,-0.47714 0.20084,-0.71734 l 0.38432,-1.45296 c 0.0621,-0.2439 0.12308,-0.48864 0.183,-0.73403 l 0.34642,-1.479 v 0 l 0.31864,-1.48825 c 0.10127,-0.4969 0.1976,-0.99426 0.28875,-1.49099 l 0.25688,-1.48723 v 0 l 0.22285,-1.47698 v 0 l 0.18694,-1.46018 c 0.22457,-1.93289 0.34777,-3.80375 0.34777,-5.54326 0,-5.03815 -2.15546,-6.6298 -7.4914,-7.04521 l -1.07273,-0.0664 c -0.37104,-0.0174 -0.75558,-0.0309 -1.15384,-0.0406 l -1.23658,-0.0197 c -0.21316,-0.002 -0.42967,-0.002 -0.64982,-0.002 z M 375.25204,82.673872 c -6.37433,0 -11.54175,5.22319 -11.54175,11.666339 0,6.443149 5.16742,11.666339 11.54175,11.666339 6.37432,0 11.54174,-5.22319 11.54174,-11.666339 0,-6.443149 -5.16742,-11.666339 -11.54174,-11.666339 z"
     id="path371"
     style="fill:#74ac00;fill-rule:evenodd;stroke:none;stroke-width:1" /></svg>
