<?xml version="1.0" encoding="UTF-8"?>
<svg width="199px" height="182px" viewBox="0 0 199 182" version="1.1" xmlns="http://www.w3.org/2000/svg" xmlns:xlink="http://www.w3.org/1999/xlink">
    <title>NaturalistaUY-Logo</title>
    <g id="NaturalistaUY-Logo" stroke="none" stroke-width="1" fill="none" fill-rule="evenodd">
        <g fill="#74AC00" id="Capybara">
            <path d="M144.145784,0 C145.833834,0 147.279237,2.04611508 148.393559,4.44414106 L148.627242,4.96277274 C148.665334,5.04990328 148.702996,5.13732833 148.740223,5.22497071 L148.958341,5.75281557 L148.958341,5.75281557 L149.165841,6.2821719 L149.165841,6.2821719 L149.362529,6.80933516 L149.362529,6.80933516 L149.548211,7.33060083 L149.548211,7.33060083 L149.722695,7.84226437 L149.722695,7.84226437 L149.963,8.58365206 L149.963,8.58365206 L150.177021,9.282597 L150.177021,9.282597 L150.364104,9.92659641 L150.364104,9.92659641 L150.473538,10.3192299 L150.473538,10.3192299 C153.097854,10.8205311 156.124667,11.6421006 159.357994,12.7057667 L160.579789,13.1158371 L160.579789,13.1158371 L161.818649,13.547688 C163.896359,14.2850809 166.0356,15.1094088 168.188525,16.0015869 L169.48154,16.5448832 L169.48154,16.5448832 L170.775542,17.1035473 C172.716137,17.9526115 174.652314,18.8504509 176.549192,19.7831525 L177.807573,20.4099657 C178.850734,20.9363595 179.879373,21.4725591 180.88751,22.0161787 L182.08705,22.6719313 L182.08705,22.6719313 L183.264611,23.3338911 C192.202459,28.4303695 199,33.9933517 199,38.1651929 C199,48.6941545 194.7439,56.5999062 190.289625,61.6452694 L189.794097,62.1940822 C188.306301,63.8051346 186.813185,65.09739 185.465042,66.0620641 L185.021237,66.3714774 C184.875229,66.470563 184.731217,66.5655922 184.589407,66.6565532 L184.17079,66.9172191 C183.896391,67.0828436 183.631626,67.2321467 183.378143,67.3650319 L183.006586,67.5520343 C182.160327,67.9595858 181.46238,68.1654281 180.983459,68.1654281 C178.407085,68.1654281 176.102757,67.348078 173.689768,66.3530431 L171.226459,65.3224713 L171.226459,65.3224713 L170.374636,64.9771924 C167.502661,63.8364999 164.287645,62.8274257 160.207355,62.8274257 L159.865968,62.8307479 L159.865968,62.8307479 L159.527542,62.8412558 L159.527542,62.8412558 L159.192238,62.8597614 L159.192238,62.8597614 L158.86022,62.8870767 C158.805166,62.8924085 158.750256,62.8981412 158.695493,62.9042918 L158.368706,62.9463442 C158.260383,62.9621232 158.152676,62.9797088 158.04561,62.9992364 L157.726368,63.0637804 C154.818133,63.711319 152.416019,65.9298154 151.082681,72.5338309 L150.941493,73.2718014 L150.941493,73.2718014 L150.808947,74.0453781 C150.787585,74.1773199 150.76659,74.3107791 150.745965,74.4457726 L150.626686,75.2742811 C150.569295,75.6978768 150.515296,76.1355861 150.464782,76.5878657 L150.368427,77.5119874 C150.353151,77.6692907 150.338268,77.8282467 150.323784,77.9888724 L150.241669,78.9727981 L150.241669,78.9727981 L150.169252,79.997608 C150.146747,80.3461156 150.125885,80.7015726 150.106694,81.0641143 L150.054157,82.173129 C150.038333,82.5499755 150.024207,82.934042 150.011805,83.325464 L149.979798,84.5219313 C149.975335,84.7250654 149.97131,84.9300721 149.967726,85.1369684 L149.951544,86.4011568 L149.951544,86.4011568 L149.944234,88.1554756 L149.944234,88.1554756 L149.92369,89.7292835 L149.92369,89.7292835 L149.901091,90.7981437 L149.901091,90.7981437 L149.871275,91.8007821 L149.871275,91.8007821 L149.847586,92.3679114 C149.843392,92.4529921 149.839076,92.5328148 149.834642,92.6065732 L149.820985,92.8088492 C149.825866,100.572473 148.207987,107.062168 146.037679,113.1737 L145.611008,114.352096 C145.466677,114.743481 145.320334,115.133532 145.172266,115.52249 L144.723177,116.686327 L144.723177,116.686327 L144.265465,117.84505 L144.265465,117.84505 L143.566501,119.576701 L143.566501,119.576701 L141.810651,123.849734 L140.916969,126.053803 L140.916969,126.053803 L140.476602,127.164112 C140.40369,127.349726 140.331039,127.535638 140.25868,127.721874 L139.828279,128.843388 L139.828279,128.843388 L139.406358,129.973913 C136.903213,136.786571 134.937375,144.152522 134.937375,153.271181 C134.937375,158.695318 135.546116,163.030888 136.359862,166.963682 L136.586572,168.026791 L136.586572,168.026791 L136.821628,169.07302 L136.821628,169.07302 L137.185879,170.617473 L137.185879,170.617473 L138.182281,174.663678 L143.269031,176.830564 C145.220527,177.661874 146.511555,179.539362 146.601282,181.644782 L146.60628,181.879614 L129.479995,181.879614 C126.665533,181.879614 124.134161,180.195412 123.039108,177.62104 L122.94069,177.377109 L118.542127,165.860148 L113.179749,169.065934 C114.274145,167.819132 114.894384,165.248599 115.23147,162.319609 L115.313108,161.548028 C115.325686,161.418287 115.33776,161.288028 115.349345,161.157329 L115.413127,160.368494 L115.413127,160.368494 L115.465946,159.572917 C115.473877,159.43997 115.481383,159.306902 115.48848,159.17379 L115.526268,158.375239 L115.526268,158.375239 L115.566163,157.183812 L115.566163,157.183812 L115.575362,156.79028 L108.947567,160.753077 C109.909197,159.657409 110.504886,157.539814 110.864013,155.05517 L110.960296,154.335849 L110.960296,154.335849 L111.044375,153.599948 C111.057409,153.476104 111.069962,153.351711 111.082048,153.22684 L111.14908,152.472431 L111.14908,152.472431 L111.205584,151.709926 C111.214161,151.582356 111.222328,151.454589 111.230098,151.326698 L111.27207,150.558414 L111.27207,150.558414 L111.30519,149.79052 L111.30519,149.79052 L111.330131,149.02641 L111.330131,149.02641 L111.347563,148.269479 L111.347563,148.269479 L111.358156,147.523121 L111.358156,147.523121 L111.362689,146.430832 L111.362689,146.430832 C106.963874,151.875528 99.2649163,157.511426 89.8485266,161.553095 L89.2182403,161.820158 L87.9851153,157.47399 L85.2121591,158.686408 L85.2121591,158.686408 L81.4511013,160.312646 L81.4511013,160.312646 L76.3615754,162.481008 L76.3615754,162.481008 L72.5669561,164.074102 L72.5669561,164.074102 L67.8135726,166.041519 L67.8135726,166.041519 L62.6597043,168.138413 L62.6597043,168.138413 L58.6660786,169.735026 L58.6660786,169.735026 L54.7963605,171.251343 L72.5423576,174.853657 C76.1916691,175.594442 79.1728783,178.199859 80.4031528,181.697996 L80.5042916,182 L34.8692402,182 C32.2269149,182 30.0407321,179.944041 29.8786547,177.306691 C29.4772799,170.775283 28.0383775,165.204868 25.5619475,160.595447 C23.2955893,163.567316 20.2253525,165.528299 17.3079731,166.816127 L16.7629894,167.049788 L16.7629894,167.049788 L16.2229897,167.268167 L16.2229897,167.268167 L15.6893755,167.471759 C15.5127241,167.537213 15.3373705,167.600286 15.1635483,167.661058 L14.6469096,167.836559 C14.5616468,167.864686 14.4768251,167.89226 14.3924739,167.919289 L13.8922457,168.07502 L13.8922457,168.07502 L13.4047096,168.21819 L13.4047096,168.21819 L12.9312671,168.349293 L12.9312671,168.349293 L12.2505946,168.524405 L12.2505946,168.524405 L11.609516,168.675149 L11.609516,168.675149 L11.0127612,168.803197 L11.0127612,168.803197 L10.4650602,168.910216 L10.4650602,168.910216 L9.81927333,169.023085 L9.81927333,169.023085 L9.28031378,169.105498 L9.28031378,169.105498 L8.6279106,169.188339 L8.6279106,169.188339 L8.39708999,169.211239 L8.39708999,169.211239 C8.6074616,168.361751 8.79931737,167.511067 8.97407028,166.661976 L9.17565484,165.64401 C9.27243286,165.135588 9.36325732,164.628141 9.44843343,164.122273 L9.61134494,163.112818 C9.63727182,162.944986 9.6625937,162.777374 9.6873219,162.610004 L9.82865734,161.608871 C9.85105603,161.44256 9.87288364,161.276535 9.89415147,161.11082 L10.0151317,160.12042 L10.0151317,160.12042 L10.1232199,159.138513 L10.1232199,159.138513 L10.2189588,158.166173 C10.2339163,158.004973 10.2483819,157.844216 10.2623668,157.683925 L10.3405991,156.727942 L10.3405991,156.727942 L10.4078384,155.784204 L10.4078384,155.784204 L10.4646275,154.853782 L10.4646275,154.853782 L10.5115088,153.937747 L10.5115088,153.937747 L10.549025,153.037172 L10.549025,153.037172 L10.5777187,152.153127 L10.5777187,152.153127 L10.5981324,151.286684 L10.5981324,151.286684 L10.614415,150.022367 L10.614415,150.022367 L10.6151197,148.803683 L10.6151197,148.803683 L10.6020778,147.634246 L10.6020778,147.634246 L10.5771205,146.517675 L10.5771205,146.517675 L10.5420791,145.457584 L10.5420791,145.457584 L10.5140201,144.78402 L10.5140201,144.78402 L10.4490685,143.52131 L10.4490685,143.52131 L10.3759561,142.378296 L10.3759561,142.378296 L10.2990235,141.363553 L10.2990235,141.363553 L10.2040984,140.288561 L10.2040984,140.288561 L10.1184645,139.444127 L10.1184645,139.444127 L10,138.446758 L1.34345367,147.672409 C0.415078075,141.406791 0,135.520004 0,129.989343 C0,98.464057 20.6005199,73.6636549 48.4712972,60.1003675 L48.9495162,60.0285485 L48.9495162,60.0285485 L49.891731,59.8955156 L49.891731,59.8955156 L50.8147124,59.7761603 L50.8147124,59.7761603 L51.7181376,59.6699274 L51.7181376,59.6699274 L52.6016837,59.5762618 C52.7472669,59.5616673 52.8920083,59.5475733 53.0359012,59.5339682 L53.8890232,59.4581128 L53.8890232,59.4581128 L54.7214588,59.3934369 L54.7214588,59.3934369 L55.5328852,59.3393854 L55.5328852,59.3393854 L56.3229795,59.2954034 L56.3229795,59.2954034 L57.0914187,59.2609356 L57.0914187,59.2609356 L57.8378801,59.2354269 C57.9604409,59.2318912 58.0820724,59.2287057 58.2027681,59.2258588 L58.9156572,59.2127481 L58.9156572,59.2127481 L59.6057611,59.2072087 L59.6057611,59.2072087 L60.272757,59.2086857 L60.272757,59.2086857 L60.9163219,59.2166239 L60.9163219,59.2166239 L61.5361331,59.2304682 L61.5361331,59.2304682 L62.1318676,59.2496635 L62.1318676,59.2496635 L62.7032025,59.2736547 L62.7032025,59.2736547 L63.2498149,59.3018867 L63.2498149,59.3018867 L64.0226726,59.3509719 L64.0226726,59.3509719 L64.7380884,59.4064764 L64.7380884,59.4064764 L65.3949727,59.4665269 L65.3949727,59.4665269 L66.1778857,59.5504275 L66.1778857,59.5504275 L66.8522222,59.6346383 L66.8522222,59.6346383 L67.6544951,59.7518218 L67.6544951,59.7518218 L68.5087371,59.9057629 L68.5087371,59.9057629 C66.8268973,57.7463013 64.7911983,55.8456636 62.7036987,54.358885 L63.6986751,54.0384362 L63.6986751,54.0384362 L65.7153234,53.7458781 L65.7153234,53.7458781 L68.1586953,53.4045148 L68.1586953,53.4045148 L70.9697695,53.0294668 L70.9697695,53.0294668 L73.6397299,52.690788 L73.6397299,52.690788 L76.563415,52.3397035 L76.563415,52.3397035 L79.6337209,51.9937335 L79.6337209,51.9937335 L82.7147962,51.6708962 L82.7147962,51.6708962 L86.1539173,51.3416377 L86.1539173,51.3416377 L90.7953045,50.9619861 L90.7953045,50.9619861 L91.1631199,50.9370886 L91.1631199,50.9370886 C87.8942959,49.0747232 83.1474712,48.5706974 79.0572366,48.5557777 C88.2321776,44.2998171 95.0978032,38.9869631 100.997739,33.6700414 L102.029154,32.7319332 L102.029154,32.7319332 L103.04216,31.7950263 L103.04216,31.7950263 L104.038399,30.8606065 L104.038399,30.8606065 L105.504909,29.4664526 L105.504909,29.4664526 L109.755615,25.3783188 L109.755615,25.3783188 L110.680429,24.4973098 L110.680429,24.4973098 L111.601604,23.629074 L111.601604,23.629074 L112.520779,22.7748972 L112.520779,22.7748972 L113.439597,21.9360651 C114.052387,21.3822443 114.666033,20.8395105 115.282722,20.309578 C115.266007,18.3705601 115.487269,16.4027931 115.880927,14.515556 L116.026917,13.852994 L116.026917,13.852994 L116.186582,13.1981873 C116.408302,12.3307564 116.664783,11.4868532 116.94919,10.677866 L117.167625,10.0778503 L117.167625,10.0778503 L117.395891,9.49199575 C117.590031,9.00998069 117.793745,8.54382899 118.005365,8.09632099 L118.262996,7.56843829 C118.611279,6.87700118 118.978091,6.23613901 119.356597,5.65724007 L119.642563,5.23486191 C120.986306,3.31964247 122.452379,2.19834931 123.747758,2.35925566 C125.36526,2.55987524 126.9019,4.38571611 128.145007,6.44962661 L128.449545,6.96976127 L128.449545,6.96976127 L128.741114,7.49499899 L128.741114,7.49499899 L129.018976,8.02052329 C129.064103,8.10786697 129.108628,8.19502191 129.152536,8.28188775 L129.408452,8.79881097 L129.408452,8.79881097 L129.648815,9.30397951 L129.648815,9.30397951 L129.872886,9.79257687 L129.872886,9.79257687 L130.079926,10.2597866 L130.079926,10.2597866 L130.269197,10.7007921 L130.269197,10.7007921 L130.518172,11.3026314 L130.518172,11.3026314 C132.963567,10.5462685 135.60002,10.0409454 138.48942,9.83466456 L138.603874,9.3746394 L138.603874,9.3746394 L138.727949,8.89532966 L138.727949,8.89532966 L138.861606,8.39997503 L138.861606,8.39997503 L139.004805,7.89181524 L139.004805,7.89181524 L139.157506,7.37409 L139.157506,7.37409 L139.319671,6.85003902 L139.319671,6.85003902 L139.491258,6.32290201 L139.491258,6.32290201 L139.672228,5.7959187 L139.672228,5.7959187 L139.862542,5.27232879 C139.895037,5.18552658 139.92792,5.09900074 139.96119,5.01281878 L140.165444,4.50039344 L140.165444,4.50039344 L140.378941,3.99946079 L140.378941,3.99946079 L140.601643,3.51326055 C141.548687,1.52261832 142.734384,0 144.145784,0 Z M189.313502,36.128426 L188.932267,36.1314125 L188.932267,36.1314125 L188.530496,36.1409028 L188.530496,36.1409028 L188.111923,36.1576934 L188.111923,36.1576934 L187.680282,36.182581 L187.680282,36.182581 L187.239307,36.2163621 C187.091175,36.2291931 186.94211,36.2436392 186.792733,36.259833 L186.344294,36.3137905 C186.269606,36.3237015 186.194996,36.3340827 186.120541,36.3449505 L185.676306,36.4161312 C183.691251,36.7639216 181.933102,37.4907245 181.933102,38.9231634 C181.933102,40.9090461 182.911303,43.5290223 184.195561,45.9020375 L184.497055,46.4448714 C184.905475,47.1617353 185.337977,47.8488019 185.774979,48.4804054 L186.103268,48.9433077 C186.322282,49.2444417 186.541198,49.5301057 186.757568,49.7970918 L187.079907,50.1831612 L187.079907,50.1831612 L187.396591,50.5388074 C188.231911,51.444494 188.987335,52 189.506222,52 C190.090067,52 190.744338,51.240894 191.369091,50.0416135 L191.576112,49.625988 C191.644663,49.4823036 191.712713,49.3336225 191.780124,49.180382 L191.980303,48.7074204 C192.013301,48.6264596 192.046106,48.5444684 192.078699,48.4615015 L192.271589,47.9524282 L192.271589,47.9524282 L192.45859,47.4225616 C192.489221,47.3326636 192.519572,47.2420085 192.549626,47.1506512 L192.726252,46.5945165 L192.726252,46.5945165 L192.894934,46.024151 C192.92234,45.92805 192.949381,45.8314654 192.976039,45.734452 L193.131261,45.1476619 C193.156321,45.0491516 193.180964,44.9503218 193.205173,44.8512271 L193.345085,44.2539187 L193.345085,44.2539187 L193.473762,43.6528792 C193.514691,43.4522025 193.553609,43.2513414 193.590381,43.0507335 L193.69412,42.4501067 L193.69412,42.4501067 L193.784156,41.8536236 L193.784156,41.8536236 L193.859666,41.2639093 C193.950297,40.4833026 194,39.7277458 194,39.0252382 C194,36.9905412 193.129517,36.3477484 190.974559,36.1799744 L190.54132,36.1531874 C190.391486,36.1460714 190.236195,36.1406864 190.075335,36.1367861 L189.575938,36.1292934 C189.489884,36.1287049 189.40241,36.128426 189.313502,36.128426 Z M147.661212,21 C145.086896,21 143,23.109425 143,25.7115325 C143,28.3136401 145.086896,30.4230651 147.661212,30.4230651 C150.235528,30.4230651 152.322423,28.3136401 152.322423,25.7115325 C152.322423,23.109425 150.235528,21 147.661212,21 Z"></path>
        </g>
    </g>
</svg>