<?xml version="1.0" encoding="UTF-8" standalone="no"?>
<svg
   viewBox="0 0 512 512"
   version="1.1"
   id="svg184"
   sodipodi:docname="www.svg"
   xml:space="preserve"
   inkscape:version="1.2.1 (9c6d41e, 2022-07-14)"
   xmlns:inkscape="http://www.inkscape.org/namespaces/inkscape"
   xmlns:sodipodi="http://sodipodi.sourceforge.net/DTD/sodipodi-0.dtd"
   xmlns="http://www.w3.org/2000/svg"
   xmlns:svg="http://www.w3.org/2000/svg"><defs
     id="defs188" /><sodipodi:namedview
     id="namedview186"
     pagecolor="#ffffff"
     bordercolor="#666666"
     borderopacity="1.0"
     inkscape:showpageshadow="2"
     inkscape:pageopacity="0.0"
     inkscape:pagecheckerboard="0"
     inkscape:deskcolor="#d1d1d1"
     showgrid="false"
     inkscape:zoom="0.57135663"
     inkscape:cx="-24.503085"
     inkscape:cy="146.1434"
     inkscape:window-width="1309"
     inkscape:window-height="725"
     inkscape:window-x="0"
     inkscape:window-y="25"
     inkscape:window-maximized="0"
     inkscape:current-layer="svg184" /><path
     style="fill:#000000;stroke-width:0.999999"
     d="m 245.85736,509.31058 c -19.22767,-0.87037 -37.06339,-3.55014 -54.71789,-8.22127 C 138.28525,487.10494 91.484922,456.43035 57.230633,413.32079 25.921406,373.91763 7.2061841,326.23761 3.2333252,275.75425 2.4259086,265.49444 2.2762581,249.83574 2.8971783,240.57843 5.2182492,205.97279 13.43521,174.78299 28.151783,144.71746 44.668879,110.97355 68.079827,81.736109 97.548624,58.049198 127.41332,34.044037 162.84951,16.966707 200.11828,8.619158 c 12.84438,-2.8769765 24.18379,-4.5380274 38.55604,-5.6480365 6.79103,-0.5243492 27.79896,-0.5269086 34.64764,0 23.19793,1.770748 43.1586,5.7618776 64.0808,12.8128125 26.41443,8.902004 51.60204,22.454415 73.95337,39.791482 8.51846,6.607394 15.6921,12.953095 23.80722,21.059433 6.16286,6.156176 10.17434,10.510036 15.09077,16.378441 30.51773,36.42758 50.00986,79.93656 56.70995,126.58432 1.95368,13.60201 2.68026,25.20914 2.49063,39.78771 -0.11932,9.17003 -0.40917,14.57148 -1.20396,22.43137 -6.65515,65.81543 -38.82017,126.19977 -90.0003,168.96025 -26.70895,22.31499 -58.24621,39.09955 -91.58382,48.74213 -18.03699,5.21693 -36.44977,8.35718 -56.19677,9.58407 -4.85355,0.30167 -19.78773,0.43001 -24.61249,0.21159 z m 23.6618,-72.88427 c 19.19938,-1.52612 35.86519,-5.14063 52.81651,-11.45501 40.86556,-15.22248 74.97411,-44.10037 96.2693,-81.50619 17.96175,-31.55058 25.72932,-67.74048 22.35033,-104.13247 C 435.51501,180.74038 400.74434,128.21957 347.89885,98.771759 310.72999,78.059687 266.67865,70.609823 223.99133,77.81677 c -45.25332,7.640249 -86.21462,31.63955 -114.633,67.16384 -27.36062,34.20195 -41.200083,77.1065 -38.843726,120.42168 3.08617,56.73036 32.989386,108.37249 81.223746,140.27166 27.96917,18.49693 59.90881,29.00038 94.11901,30.95128 4.12065,0.23499 19.8681,0.10233 23.6618,-0.19892 z m 22.60547,-28.16084 c 0,-0.0475 1.49735,-1.35816 3.32744,-2.91207 6.45622,-5.48228 15.2566,-14.645 21.04282,-21.90934 6.85504,-8.6062 14.23486,-20.13775 18.85891,-29.46855 l 1.02079,-2.05986 h 23.31184 23.31185 l -1.33503,1.6162 c -6.87061,8.31756 -15.33407,16.63561 -23.79081,23.38232 -18.1095,14.44741 -40.22623,25.30166 -62.31658,30.58306 -1.48049,0.35396 -2.85818,0.69109 -3.06152,0.74923 -0.20334,0.0585 -0.36971,0.067 -0.36971,0.0195 z m -82.49939,-2.58213 c -0.11615,-0.039 -2.06081,-0.65903 -4.32138,-1.37658 -7.44193,-2.36237 -15.70266,-5.7253 -22.8338,-9.29568 -19.95093,-9.98899 -37.97232,-24.32645 -52.13783,-41.47972 l -1.33586,-1.61766 22.12081,0.0537 22.12084,0.0537 0.83151,1.90141 c 1.23626,2.82689 4.99424,10.39095 6.70961,13.505 7.61275,13.82044 16.82012,26.1535 26.71105,35.77878 1.45927,1.42008 2.58419,2.57446 2.49978,2.56531 -0.0844,-0.0122 -0.24853,-0.0488 -0.36473,-0.089 z m 28.29258,-9.43062 c -5.37999,-3.67276 -8.87459,-6.60496 -14.04308,-11.78325 -7.20895,-7.22267 -12.78986,-14.45485 -18.52223,-24.0026 -1.61453,-2.68915 -4.70607,-8.26126 -4.70607,-8.48199 0,-0.0378 8.98408,-0.0695 19.96465,-0.0695 h 19.96462 v 23.02802 c 0,12.66545 -0.0315,23.028 -0.0698,23.028 -0.0384,0 -1.20302,-0.77349 -2.588,-1.71895 z m 27.37602,-21.81964 v -22.51743 h 21.46438 21.46437 l -0.4583,0.77677 c -9.43226,15.98646 -23.44952,31.14703 -38.50865,41.64938 -1.94597,1.3572 -3.63345,2.49925 -3.74997,2.53814 -0.14072,0.0475 -0.21183,-7.48875 -0.21183,-22.44686 z M 110.76963,323.17037 C 103.15729,307.44 98.451048,291.64332 96.409031,274.96846 c -0.288572,-2.35654 -0.585607,-4.92624 -0.660057,-5.71057 l -0.135373,-1.42606 h 29.344649 29.34467 l 0.24755,4.06682 c 1.03458,16.99567 4.03042,35.10476 8.40896,50.82953 0.6259,2.24792 1.13799,4.12544 1.13799,4.17261 0,0.0475 -11.58327,0.0854 -25.7406,0.0854 h -25.74058 z m 78.6033,1.54478 c -4.35948,-13.5373 -7.56415,-28.78684 -9.20132,-43.78481 -0.35101,-3.21582 -1.07259,-11.83907 -1.07394,-12.83451 0,-0.21 6.28814,-0.264 30.73883,-0.264 h 30.73921 v 29.57726 29.57726 h -25.2357 -25.23569 z m 75.97299,-27.25328 0.0536,-29.52449 33.64411,-0.0537 33.64411,-0.0537 v 0.93863 c 0,1.64618 -0.62061,8.5305 -1.17251,13.00625 -1.76539,14.31724 -5.1041,28.45652 -9.76518,41.35527 l -1.39325,3.85571 h -27.53219 -27.5322 z m 82.05313,27.25328 c 5.34653,-16.86525 8.94974,-35.99086 9.90077,-52.55237 0.0668,-1.16194 0.17226,-2.61176 0.2345,-3.22179 l 0.11311,-1.10916 h 29.36761 29.36758 l -0.13967,1.42606 c -1.95134,19.92322 -6.52666,36.38308 -14.94565,53.7672 l -1.91839,3.96126 H 373.02897 346.67901 Z M 95.902794,241.26513 c 0.51414,-5.57844 1.684909,-12.85279 3.051736,-18.96118 2.84171,-12.69958 8.04198,-26.6859 14.13683,-38.02159 l 1.65045,-3.06967 h 25.20596 c 13.86329,0 25.20598,0.0524 25.20598,0.11701 0,0.0646 -0.46561,1.65653 -1.03468,3.53868 -4.94735,16.36296 -8.05017,33.41896 -9.42373,51.80205 -0.17364,2.32399 -0.31582,4.72439 -0.31594,5.33443 l -2.2e-4,1.10915 H 125.05581 95.732423 Z m 83.194876,1.58451 c 1.8e-4,-0.14528 0.14592,-2.21307 0.32382,-4.59507 1.43849,-19.25919 5.08658,-37.27639 10.91884,-53.92565 l 1.09162,-3.11623 h 24.57189 24.57187 v 30.95054 30.95042 H 209.8365 c -24.45069,0 -30.73911,-0.0537 -30.73883,-0.26401 z m 86.24829,-30.63364 0.0536,-30.89765 26.53431,-0.0537 26.53434,-0.0537 1.22553,3.11697 c 6.36944,16.19987 10.6385,34.22352 12.34762,52.13077 0.23289,2.44013 0.46674,4.93561 0.51966,5.54564 l 0.0963,1.10917 h -33.68236 -33.68238 z m 92.05987,30.40023 c 0,-0.27363 -0.0964,-1.72345 -0.21419,-3.22179 -1.48887,-18.9373 -4.88264,-36.03839 -10.64961,-53.66323 -0.76431,-2.33581 -1.38963,-4.30804 -1.38963,-4.38275 0,-0.0744 11.72599,-0.13577 26.05778,-0.13577 h 26.05778 l 1.28034,2.37675 c 9.71501,18.03437 15.66535,37.76039 17.65278,58.52072 l 0.096,1.00349 h -29.44564 -29.44566 z m -223.16698,-88.7096 c 3.19663,-3.62024 10.16091,-10.54222 13.80235,-13.71855 17.80539,-15.53109 38.21645,-26.87117 60.18924,-33.44028 1.44061,-0.43062 2.77158,-0.84089 2.95773,-0.91146 0.18616,-0.0707 -1.28048,1.48262 -3.2592,3.45166 -12.41281,12.35246 -22.88157,26.99062 -31.07887,43.4567 l -1.86688,3.74992 h -21.51478 -21.51477 z m 68.73151,2.48791 c 0,-0.22451 3.3583,-5.69836 5.2383,-8.5383 8.40148,-12.69128 19.39818,-24.39335 30.54903,-32.50835 l 1.81802,-1.32307 v 21.23484 21.23496 h -18.80267 c -10.34147,0 -18.80268,-0.0451 -18.80268,-0.1 z m 62.32348,-21.1322 c 0,-15.53414 0.0635,-21.23215 0.23668,-21.23215 0.26173,0 3.62679,2.40796 6.73511,4.81946 9.15446,7.10226 18.49176,16.65671 25.84674,26.44787 2.23634,2.97704 7.53329,10.73003 7.53329,11.02621 0,0.0938 -9.07917,0.17089 -20.17591,0.17089 h -20.17591 z m 67.30825,18.11043 c -4.91185,-9.14834 -11.71522,-19.42995 -18.06471,-27.30045 -5.26313,-6.5239 -13.28456,-15.00357 -18.68428,-19.75148 -1.45243,-1.27712 -2.61985,-2.34289 -2.59429,-2.36848 0.0256,-0.0256 1.65844,0.36675 3.62864,0.87172 20.90502,5.35845 40.22828,14.59832 57.24375,27.37237 9.11601,6.84372 16.84554,14.0057 24.58143,22.77643 l 1.34218,1.52174 H 357.1635 334.2722 l -1.67011,-3.11052 z"
     id="path3611" /><!--! Font Awesome Pro 6.4.0 by @fontawesome - https://fontawesome.com License - https://fontawesome.com/license (Commercial License) Copyright 2023 Fonticons, Inc. --><path
     style="fill:#000000"
     id="path3609"
     d="" /><path
     style="fill:#000000"
     id="path3607"
     d="" /></svg>
