<?xml version="1.0" encoding="UTF-8" standalone="no"?>
<svg
   width="448"
   height="512"
   viewBox="0 0 448 512"
   version="1.1"
   id="svg8"
   inkscape:version="1.2.1 (9c6d41e, 2022-07-14)"
   sodipodi:docname="circle-square.svg"
   xmlns:inkscape="http://www.inkscape.org/namespaces/inkscape"
   xmlns:sodipodi="http://sodipodi.sourceforge.net/DTD/sodipodi-0.dtd"
   xmlns="http://www.w3.org/2000/svg"
   xmlns:svg="http://www.w3.org/2000/svg"
   xmlns:rdf="http://www.w3.org/1999/02/22-rdf-syntax-ns#"
   xmlns:cc="http://creativecommons.org/ns#"
   xmlns:dc="http://purl.org/dc/elements/1.1/">
  <title
     id="title862">iNaturalist</title>
  <defs
     id="defs2" />
  <sodipodi:namedview
     id="base"
     pagecolor="#ffffff"
     bordercolor="#666666"
     borderopacity="1.0"
     inkscape:pageopacity="0.0"
     inkscape:pageshadow="2"
     inkscape:zoom="0.86268849"
     inkscape:cx="249.80048"
     inkscape:cy="245.7434"
     inkscape:document-units="px"
     inkscape:current-layer="layer6"
     inkscape:document-rotation="0"
     showgrid="true"
     units="px"
     showguides="true"
     inkscape:guide-bbox="true"
     inkscape:window-width="1392"
     inkscape:window-height="786"
     inkscape:window-x="48"
     inkscape:window-y="30"
     inkscape:window-maximized="0"
     inkscape:pagecheckerboard="0"
     inkscape:showpageshadow="2"
     inkscape:deskcolor="#d1d1d1">
    <inkscape:grid
       type="xygrid"
       id="grid10"
       empspacing="4" />
    <sodipodi:guide
       position="448,416"
       orientation="0,1"
       id="guide832"
       inkscape:label=""
       inkscape:locked="false"
       inkscape:color="rgb(0,0,255)" />
    <sodipodi:guide
       position="448,96"
       orientation="0,1"
       id="guide834"
       inkscape:label=""
       inkscape:locked="false"
       inkscape:color="rgb(0,0,255)" />
    <sodipodi:guide
       position="448,64"
       orientation="0,1"
       id="guide836"
       inkscape:label="baseline"
       inkscape:locked="false"
       inkscape:color="rgb(0,0,255)" />
    <sodipodi:guide
       id="guide835"
       orientation="1,0"
       position="64,512"
       inkscape:locked="false" />
    <sodipodi:guide
       id="guide837"
       orientation="1,0"
       position="384,512"
       inkscape:locked="false" />
  </sodipodi:namedview>
  <metadata
     id="metadata5">
    <rdf:RDF>
      <cc:Work
         rdf:about="">
        <dc:format>image/svg+xml</dc:format>
        <dc:type
           rdf:resource="http://purl.org/dc/dcmitype/StillImage" />
        <dc:title>iNaturalist</dc:title>
        <cc:license
           rdf:resource="http://scripts.sil.org/OFL" />
        <dc:subject>
          <rdf:Bag>
            <rdf:li>iNaturalist</rdf:li>
          </rdf:Bag>
        </dc:subject>
      </cc:Work>
      <cc:License
         rdf:about="http://scripts.sil.org/OFL">
        <cc:permits
           rdf:resource="http://scripts.sil.org/pub/OFL/Reproduction" />
        <cc:permits
           rdf:resource="http://scripts.sil.org/pub/OFL/Distribution" />
        <cc:permits
           rdf:resource="http://scripts.sil.org/pub/OFL/Embedding" />
        <cc:permits
           rdf:resource="http://scripts.sil.org/pub/OFL/DerivativeWorks" />
        <cc:requires
           rdf:resource="http://scripts.sil.org/pub/OFL/Notice" />
        <cc:requires
           rdf:resource="http://scripts.sil.org/pub/OFL/Attribution" />
        <cc:requires
           rdf:resource="http://scripts.sil.org/pub/OFL/ShareAlike" />
        <cc:requires
           rdf:resource="http://scripts.sil.org/pub/OFL/DerivativeRenaming" />
        <cc:requires
           rdf:resource="http://scripts.sil.org/pub/OFL/BundlingWhenSelling" />
      </cc:License>
    </rdf:RDF>
  </metadata>
  <g
     inkscape:groupmode="layer"
     id="layer6"
     inkscape:label="icon">
    <path
       d="M 48,32 C 21.5,32 0,53.5 0,80 v 352 c 0,26.5 21.5,48 48,48 h 352 c 26.5,0 48,-21.5 48,-48 V 80 C 448,53.5 426.5,32 400,32 Z"
       id="path2"
       sodipodi:nodetypes="sssssssss"
       style="fill:#1b8172;fill-opacity:1" />
    <path
       style="fill:#ffffff;stroke-width:0.999999"
       d="m 217.17994,387.68451 c -13.43506,-16.80449 -30.46555,-40.26473 -41.43351,-57.07639 -26.08042,-39.97603 -42.03373,-73.86435 -47.26414,-100.39944 -5.05285,-25.63424 1.4844,-53.32044 17.71662,-75.03249 23.31838,-31.19045 62.63578,-45.49499 100.44988,-36.5459 14.00316,3.31398 25.08606,8.59919 36.90692,17.60013 15.09087,11.49086 26.74936,27.72971 32.89084,45.81292 3.93595,11.58913 4.7528,16.87708 4.7434,30.70727 -0.007,11.34911 -0.13116,12.80507 -1.62411,19.15086 -6.758,28.72524 -24.57674,64.41007 -54.34547,108.83543 -12.05247,17.9865 -39.12122,54.68464 -40.76106,55.26131 -0.2716,0.0955 -3.54733,-3.64564 -7.27937,-8.3137 z m 16.94615,-134.86775 c 14.973,-3.78444 26.33779,-14.92958 30.4183,-29.83038 1.6015,-5.84823 1.47445,-16.01139 -0.2703,-21.62071 -4.38572,-14.09999 -13.80293,-23.91016 -27.27513,-28.41327 -13.84073,-4.62629 -29.97545,-1.03946 -40.80082,9.07026 -9.0512,8.45283 -13.31957,18.08791 -13.36411,30.16708 -0.0261,7.07047 1.12516,12.45604 3.89253,18.20963 8.51752,17.70863 28.54825,27.18207 47.39953,22.41739 z"
       id="path948" />
  </g>
</svg>
