<?xml version="1.0" encoding="UTF-8" standalone="no"?>
<svg
   width="448"
   height="512"
   viewBox="0 0 448 512"
   version="1.1"
   id="svg8"
   inkscape:version="1.1.1 (c3084ef, 2021-09-22)"
   sodipodi:docname="circle-square.svg"
   xmlns:inkscape="http://www.inkscape.org/namespaces/inkscape"
   xmlns:sodipodi="http://sodipodi.sourceforge.net/DTD/sodipodi-0.dtd"
   xmlns="http://www.w3.org/2000/svg"
   xmlns:svg="http://www.w3.org/2000/svg"
   xmlns:rdf="http://www.w3.org/1999/02/22-rdf-syntax-ns#"
   xmlns:cc="http://creativecommons.org/ns#"
   xmlns:dc="http://purl.org/dc/elements/1.1/">
  <title
     id="title862">iNaturalist</title>
  <defs
     id="defs2" />
  <sodipodi:namedview
     id="base"
     pagecolor="#ffffff"
     bordercolor="#666666"
     borderopacity="1.0"
     inkscape:pageopacity="0.0"
     inkscape:pageshadow="2"
     inkscape:zoom="1.0606602"
     inkscape:cx="260.21529"
     inkscape:cy="241.83051"
     inkscape:document-units="px"
     inkscape:current-layer="layer6"
     inkscape:document-rotation="0"
     showgrid="true"
     units="px"
     showguides="true"
     inkscape:guide-bbox="true"
     inkscape:window-width="1440"
     inkscape:window-height="847"
     inkscape:window-x="2227"
     inkscape:window-y="63"
     inkscape:window-maximized="0"
     inkscape:pagecheckerboard="0">
    <inkscape:grid
       type="xygrid"
       id="grid10"
       empspacing="4" />
    <sodipodi:guide
       position="448,416"
       orientation="0,1"
       id="guide832"
       inkscape:label=""
       inkscape:locked="true"
       inkscape:color="rgb(0,0,255)" />
    <sodipodi:guide
       position="448,96"
       orientation="0,1"
       id="guide834"
       inkscape:label=""
       inkscape:locked="true"
       inkscape:color="rgb(0,0,255)" />
    <sodipodi:guide
       position="448,64"
       orientation="0,1"
       id="guide836"
       inkscape:label="baseline"
       inkscape:locked="true"
       inkscape:color="rgb(0,0,255)" />
    <sodipodi:guide
       id="guide835"
       orientation="1,0"
       position="64,512" />
    <sodipodi:guide
       id="guide837"
       orientation="1,0"
       position="384,512" />
  </sodipodi:namedview>
  <metadata
     id="metadata5">
    <rdf:RDF>
      <cc:Work
         rdf:about="">
        <dc:format>image/svg+xml</dc:format>
        <dc:type
           rdf:resource="http://purl.org/dc/dcmitype/StillImage" />
        <dc:title>iNaturalist</dc:title>
        <cc:license
           rdf:resource="http://scripts.sil.org/OFL" />
        <dc:subject>
          <rdf:Bag>
            <rdf:li>iNaturalist</rdf:li>
          </rdf:Bag>
        </dc:subject>
      </cc:Work>
      <cc:License
         rdf:about="http://scripts.sil.org/OFL">
        <cc:permits
           rdf:resource="http://scripts.sil.org/pub/OFL/Reproduction" />
        <cc:permits
           rdf:resource="http://scripts.sil.org/pub/OFL/Distribution" />
        <cc:permits
           rdf:resource="http://scripts.sil.org/pub/OFL/Embedding" />
        <cc:permits
           rdf:resource="http://scripts.sil.org/pub/OFL/DerivativeWorks" />
        <cc:requires
           rdf:resource="http://scripts.sil.org/pub/OFL/Notice" />
        <cc:requires
           rdf:resource="http://scripts.sil.org/pub/OFL/Attribution" />
        <cc:requires
           rdf:resource="http://scripts.sil.org/pub/OFL/ShareAlike" />
        <cc:requires
           rdf:resource="http://scripts.sil.org/pub/OFL/DerivativeRenaming" />
        <cc:requires
           rdf:resource="http://scripts.sil.org/pub/OFL/BundlingWhenSelling" />
      </cc:License>
    </rdf:RDF>
  </metadata>
  <g
     inkscape:groupmode="layer"
     id="layer6"
     inkscape:label="icon">
    <path
       d="M 48,32 C 21.5,32 0,53.5 0,80 v 352 c 0,26.5 21.5,48 48,48 h 352 c 26.5,0 48,-21.5 48,-48 V 80 C 448,53.5 426.5,32 400,32 Z"
       id="path2"
       sodipodi:nodetypes="sssssssss"
       style="fill:#1b8172;fill-opacity:1" />
    <path
       style="fill:#ffffff;stroke-width:0.999996"
       d="m 209.34794,415.33709 c -30.09501,-2.89791 -57.98655,-13.73103 -82.18993,-31.92269 -7.44435,-5.5953 -20.00365,-17.66163 -26.6058,-25.56148 -18.159891,-21.72936 -30.452817,-49.2964 -35.013481,-78.51817 -1.958587,-12.54934 -1.958587,-34.37386 0,-46.9232 4.245667,-27.20346 14.487667,-51.53772 30.85942,-73.31977 5.595311,-7.44437 17.661631,-20.00366 25.561481,-26.60581 21.72936,-18.15989 49.2964,-30.45283 78.51816,-35.013477 12.54935,-1.958596 34.37387,-1.958596 46.92321,0 17.46705,2.726087 31.85278,7.260357 47.23603,14.888397 42.3077,20.97898 72.98526,58.82282 84.53001,104.2762 10.82056,42.60219 2.95614,89.73024 -21.05577,126.17803 -4.90905,7.45147 -11.2934,9.37123 -18.03195,5.42217 -2.11698,-1.24063 -3.22071,-2.49243 -4.49615,-5.09934 -2.36627,-4.83648 -1.95794,-7.55685 2.18287,-14.54276 15.36048,-25.91442 22.22029,-51.11852 21.11689,-77.58695 -1.46377,-35.11301 -14.87869,-65.77147 -39.59291,-90.48571 -20.88076,-20.88075 -45.73804,-33.5247 -75.39191,-38.34898 -9.02635,-1.46847 -30.89108,-1.46847 -39.91743,0 -29.65386,4.82428 -54.51115,17.46823 -75.3919,38.34898 -20.88075,20.88076 -33.524709,45.73805 -38.348989,75.39191 -1.468466,9.02636 -1.468466,30.89107 0,39.91742 4.82428,29.65387 17.468239,54.51116 38.348989,75.39192 33.90261,33.9026 80.75829,47.0038 127.88404,35.75732 10.73126,-2.56098 20.04286,-6.18958 32.51356,-12.67003 8.26536,-4.29515 9.30565,-4.67952 11.97148,-4.42337 6.49238,0.62384 10.97558,4.96279 11.62452,11.25053 0.43674,4.23155 -1.26892,8.39472 -4.42582,10.80261 -2.80305,2.13799 -17.85812,9.8559 -23.84265,12.22282 -24.21478,9.5771 -50.64061,13.51577 -74.96597,11.17343 z m 3.32989,-83.45763 c -33.77686,-4.65321 -61.50671,-32.62612 -66.0428,-66.62167 -1.10424,-8.27571 -1.10424,-12.99614 0,-21.27185 4.57647,-34.29816 32.37027,-62.09197 66.66844,-66.66844 8.27571,-1.10424 12.99614,-1.10424 21.27185,0 25.41579,3.39127 47.8803,19.67535 59.6055,43.20683 4.66734,9.36697 7.93949,23.41979 7.93949,34.09754 0,11.58295 -3.37084,25.17819 -8.86484,35.75349 -15.43552,29.71158 -47.24508,46.09612 -80.57764,41.5041 z m 25.84371,-26.22897 c 9.21066,-2.70487 16.20631,-6.84005 22.90637,-13.5401 6.64618,-6.64619 10.75752,-13.57119 13.59939,-22.90637 1.48908,-4.89143 1.67749,-6.52924 1.67749,-14.58215 0,-8.05292 -0.18841,-9.69071 -1.67749,-14.58215 -2.84187,-9.33518 -6.95321,-16.26018 -13.59939,-22.90636 -6.64619,-6.64619 -13.57118,-10.75753 -22.90637,-13.59939 -4.89142,-1.48909 -6.52923,-1.6775 -14.58214,-1.6775 -8.05292,0 -9.69072,0.18841 -14.58215,1.6775 -9.33518,2.84186 -16.26018,6.9532 -22.90636,13.59939 -6.64619,6.64618 -10.75753,13.57118 -13.59939,22.90636 -1.48909,4.89144 -1.6775,6.52923 -1.6775,14.58215 0,8.05291 0.18841,9.69072 1.6775,14.58215 2.84186,9.33518 6.9532,16.26018 13.59939,22.90637 7.98514,7.98514 17.65464,12.9882 29.14227,15.07841 5.54204,1.00838 16.83681,0.2506 22.92838,-1.53831 z"
       id="path1138" />
  </g>
</svg>
