<?xml version="1.0" encoding="UTF-8" standalone="no"?>
<svg
   width="448"
   height="512"
   viewBox="0 0 448 512"
   version="1.1"
   id="svg8"
   inkscape:version="1.2.1 (9c6d41e, 2022-07-14)"
   sodipodi:docname="database-square.svg"
   xmlns:inkscape="http://www.inkscape.org/namespaces/inkscape"
   xmlns:sodipodi="http://sodipodi.sourceforge.net/DTD/sodipodi-0.dtd"
   xmlns="http://www.w3.org/2000/svg"
   xmlns:svg="http://www.w3.org/2000/svg"
   xmlns:rdf="http://www.w3.org/1999/02/22-rdf-syntax-ns#"
   xmlns:cc="http://creativecommons.org/ns#"
   xmlns:dc="http://purl.org/dc/elements/1.1/">
  <title
     id="title862">iNaturalist</title>
  <defs
     id="defs2" />
  <sodipodi:namedview
     id="base"
     pagecolor="#ffffff"
     bordercolor="#666666"
     borderopacity="1.0"
     inkscape:pageopacity="0.0"
     inkscape:pageshadow="2"
     inkscape:zoom="1.0606602"
     inkscape:cx="256.91546"
     inkscape:cy="279.54287"
     inkscape:document-units="px"
     inkscape:current-layer="layer6"
     inkscape:document-rotation="0"
     showgrid="true"
     units="px"
     showguides="true"
     inkscape:guide-bbox="true"
     inkscape:window-width="1440"
     inkscape:window-height="787"
     inkscape:window-x="0"
     inkscape:window-y="25"
     inkscape:window-maximized="0"
     inkscape:pagecheckerboard="0"
     inkscape:showpageshadow="2"
     inkscape:deskcolor="#d1d1d1">
    <inkscape:grid
       type="xygrid"
       id="grid10"
       empspacing="4" />
    <sodipodi:guide
       position="448,416"
       orientation="0,1"
       id="guide832"
       inkscape:label=""
       inkscape:locked="false"
       inkscape:color="rgb(0,0,255)" />
    <sodipodi:guide
       position="448,96"
       orientation="0,1"
       id="guide834"
       inkscape:label=""
       inkscape:locked="false"
       inkscape:color="rgb(0,0,255)" />
    <sodipodi:guide
       position="448,64"
       orientation="0,1"
       id="guide836"
       inkscape:label="baseline"
       inkscape:locked="false"
       inkscape:color="rgb(0,0,255)" />
    <sodipodi:guide
       id="guide835"
       orientation="1,0"
       position="64,512"
       inkscape:locked="false" />
    <sodipodi:guide
       id="guide837"
       orientation="1,0"
       position="384,512"
       inkscape:locked="false" />
  </sodipodi:namedview>
  <metadata
     id="metadata5">
    <rdf:RDF>
      <cc:Work
         rdf:about="">
        <dc:format>image/svg+xml</dc:format>
        <dc:type
           rdf:resource="http://purl.org/dc/dcmitype/StillImage" />
        <dc:title>iNaturalist</dc:title>
        <cc:license
           rdf:resource="http://scripts.sil.org/OFL" />
        <dc:subject>
          <rdf:Bag>
            <rdf:li>iNaturalist</rdf:li>
          </rdf:Bag>
        </dc:subject>
      </cc:Work>
      <cc:License
         rdf:about="http://scripts.sil.org/OFL">
        <cc:permits
           rdf:resource="http://scripts.sil.org/pub/OFL/Reproduction" />
        <cc:permits
           rdf:resource="http://scripts.sil.org/pub/OFL/Distribution" />
        <cc:permits
           rdf:resource="http://scripts.sil.org/pub/OFL/Embedding" />
        <cc:permits
           rdf:resource="http://scripts.sil.org/pub/OFL/DerivativeWorks" />
        <cc:requires
           rdf:resource="http://scripts.sil.org/pub/OFL/Notice" />
        <cc:requires
           rdf:resource="http://scripts.sil.org/pub/OFL/Attribution" />
        <cc:requires
           rdf:resource="http://scripts.sil.org/pub/OFL/ShareAlike" />
        <cc:requires
           rdf:resource="http://scripts.sil.org/pub/OFL/DerivativeRenaming" />
        <cc:requires
           rdf:resource="http://scripts.sil.org/pub/OFL/BundlingWhenSelling" />
      </cc:License>
    </rdf:RDF>
  </metadata>
  <g
     inkscape:groupmode="layer"
     id="layer6"
     inkscape:label="icon">
    <path
       d="M 48,32 C 21.5,32 0,53.5 0,80 v 352 c 0,26.5 21.5,48 48,48 h 352 c 26.5,0 48,-21.5 48,-48 V 80 C 448,53.5 426.5,32 400,32 Z"
       id="path2"
       sodipodi:nodetypes="sssssssss"
       style="fill:#1b8172;fill-opacity:1" />
    <path
       style="fill:#ffffff;stroke-width:0.999997"
       d="m 204.49382,379.49349 c -13.15817,-0.68057 -29.51177,-2.62314 -40.55953,-4.81789 -13.94262,-2.76983 -24.09752,-5.93754 -32.88312,-10.25753 -6.992,-3.43804 -11.84856,-7.59028 -12.38709,-10.59064 -0.16496,-0.91904 -0.23749,-12.62255 -0.16119,-26.00779 l 0.13874,-24.33682 2.17986,1.47526 c 13.44513,9.09917 40.99764,16.00774 75.5685,18.94817 9.84596,0.83745 46.26173,0.84254 55.22313,0.008 35.88197,-3.34268 61.03153,-9.59369 75.08408,-18.66242 l 2.66427,-1.71937 0.13875,24.31214 c 0.0763,13.37167 0.004,25.06407 -0.16118,25.98312 -0.21505,1.19807 -1.16157,2.51581 -3.34443,4.65611 -7.75129,7.60019 -29.19946,14.78725 -54.76274,18.35042 -20.14248,2.80759 -44.84399,3.79194 -66.73805,2.65953 z m 1.82664,-64.19463 c -1.33213,-0.0965 -5.80085,-0.41302 -9.93047,-0.70341 -32.89062,-2.31282 -63.40262,-10.45913 -73.54204,-19.63478 -4.72785,-4.27846 -4.44852,-2.33763 -4.44852,-30.90901 v -24.98462 l 3.02759,1.95938 c 14.66554,9.49121 43.96774,16.44229 79.42627,18.84155 11.13563,0.75347 37.65723,0.63009 49.06438,-0.22826 35.02266,-2.63533 63.90582,-9.78329 77.59815,-19.20385 l 2.08787,-1.43649 v 24.98612 c 0,19.98506 -0.13202,25.30207 -0.65958,26.56468 -1.10228,2.63816 -6.16663,6.7641 -11.59772,9.44874 -14.04805,6.94406 -35.4485,11.88817 -62.34238,14.40287 -7.46581,0.69808 -42.51419,1.34391 -48.68355,0.89708 z m -2.17986,-64.43371 c -1.19892,-0.0987 -5.34065,-0.41242 -9.20385,-0.69712 -31.36999,-2.31192 -60.4149,-10.0204 -71.75013,-19.04237 -5.00331,-3.98225 -4.78719,-2.57247 -4.78719,-31.22798 0,-13.6369 0.12421,-24.79435 0.27603,-24.79435 0.15182,0 1.25559,0.67396 2.45283,1.49768 11.10947,7.64352 36.018,14.47943 64.12019,17.59717 26.04971,2.89003 57.09304,2.63052 83.07691,-0.6945 25.03152,-3.20315 46.8083,-9.44184 58.04234,-16.62817 1.5237,-0.97469 2.87512,-1.77218 3.00316,-1.77218 0.12804,0 0.2328,11.15745 0.2328,24.79435 0,24.31765 -0.0198,24.83538 -1.03299,26.92823 -1.3993,2.89057 -5.29744,5.88826 -11.80397,9.07732 -14.1914,6.95566 -34.79133,11.65501 -62.73154,14.3106 -5.31387,0.50506 -45.32665,1.02738 -49.89459,0.65132 z m 7.26621,-63.94521 c -43.74571,-1.5646 -79.45243,-9.83272 -89.73309,-20.77825 -3.62654,-3.86108 -4.11642,-7.56625 -1.51289,-11.44279 4.63121,-6.89573 20.74891,-13.51012 42.80463,-17.56623 52.04768,-9.57171 123.65491,-5.19004 153.80127,9.41113 8.14676,3.94583 12.21577,7.88261 12.71374,12.30059 0.35838,3.17945 -1.94996,6.95727 -6.07845,9.94792 -11.74249,8.50623 -39.20875,15.03617 -73.24214,17.4129 -7.69835,0.53762 -31.45485,0.97577 -38.75307,0.71473 z"
       id="path1552" />
  </g>
</svg>
