<?xml version="1.0" encoding="UTF-8" standalone="no"?>
<svg
   width="448"
   height="512"
   viewBox="0 0 448 512"
   version="1.1"
   id="svg8"
   inkscape:version="1.2.1 (9c6d41e, 2022-07-14)"
   sodipodi:docname="database-square.svg"
   xmlns:inkscape="http://www.inkscape.org/namespaces/inkscape"
   xmlns:sodipodi="http://sodipodi.sourceforge.net/DTD/sodipodi-0.dtd"
   xmlns="http://www.w3.org/2000/svg"
   xmlns:svg="http://www.w3.org/2000/svg"
   xmlns:rdf="http://www.w3.org/1999/02/22-rdf-syntax-ns#"
   xmlns:cc="http://creativecommons.org/ns#"
   xmlns:dc="http://purl.org/dc/elements/1.1/">
  <title
     id="title862">iNaturalist</title>
  <defs
     id="defs2" />
  <sodipodi:namedview
     id="base"
     pagecolor="#ffffff"
     bordercolor="#666666"
     borderopacity="1.0"
     inkscape:pageopacity="0.0"
     inkscape:pageshadow="2"
     inkscape:zoom="1.0606602"
     inkscape:cx="258.80108"
     inkscape:cy="279.54287"
     inkscape:document-units="px"
     inkscape:current-layer="layer6"
     inkscape:document-rotation="0"
     showgrid="true"
     units="px"
     showguides="true"
     inkscape:guide-bbox="true"
     inkscape:window-width="1440"
     inkscape:window-height="787"
     inkscape:window-x="0"
     inkscape:window-y="25"
     inkscape:window-maximized="0"
     inkscape:pagecheckerboard="0"
     inkscape:showpageshadow="2"
     inkscape:deskcolor="#d1d1d1">
    <inkscape:grid
       type="xygrid"
       id="grid10"
       empspacing="4" />
    <sodipodi:guide
       position="448,416"
       orientation="0,1"
       id="guide832"
       inkscape:label=""
       inkscape:locked="false"
       inkscape:color="rgb(0,0,255)" />
    <sodipodi:guide
       position="448,96"
       orientation="0,1"
       id="guide834"
       inkscape:label=""
       inkscape:locked="false"
       inkscape:color="rgb(0,0,255)" />
    <sodipodi:guide
       position="448,64"
       orientation="0,1"
       id="guide836"
       inkscape:label="baseline"
       inkscape:locked="false"
       inkscape:color="rgb(0,0,255)" />
    <sodipodi:guide
       id="guide835"
       orientation="1,0"
       position="64,512"
       inkscape:locked="false" />
    <sodipodi:guide
       id="guide837"
       orientation="1,0"
       position="384,512"
       inkscape:locked="false" />
  </sodipodi:namedview>
  <metadata
     id="metadata5">
    <rdf:RDF>
      <cc:Work
         rdf:about="">
        <dc:format>image/svg+xml</dc:format>
        <dc:type
           rdf:resource="http://purl.org/dc/dcmitype/StillImage" />
        <dc:title>iNaturalist</dc:title>
        <cc:license
           rdf:resource="http://scripts.sil.org/OFL" />
        <dc:subject>
          <rdf:Bag>
            <rdf:li>iNaturalist</rdf:li>
          </rdf:Bag>
        </dc:subject>
      </cc:Work>
      <cc:License
         rdf:about="http://scripts.sil.org/OFL">
        <cc:permits
           rdf:resource="http://scripts.sil.org/pub/OFL/Reproduction" />
        <cc:permits
           rdf:resource="http://scripts.sil.org/pub/OFL/Distribution" />
        <cc:permits
           rdf:resource="http://scripts.sil.org/pub/OFL/Embedding" />
        <cc:permits
           rdf:resource="http://scripts.sil.org/pub/OFL/DerivativeWorks" />
        <cc:requires
           rdf:resource="http://scripts.sil.org/pub/OFL/Notice" />
        <cc:requires
           rdf:resource="http://scripts.sil.org/pub/OFL/Attribution" />
        <cc:requires
           rdf:resource="http://scripts.sil.org/pub/OFL/ShareAlike" />
        <cc:requires
           rdf:resource="http://scripts.sil.org/pub/OFL/DerivativeRenaming" />
        <cc:requires
           rdf:resource="http://scripts.sil.org/pub/OFL/BundlingWhenSelling" />
      </cc:License>
    </rdf:RDF>
  </metadata>
  <g
     inkscape:groupmode="layer"
     id="layer6"
     inkscape:label="icon">
    <path
       d="M 48,32 C 21.5,32 0,53.5 0,80 v 352 c 0,26.5 21.5,48 48,48 h 352 c 26.5,0 48,-21.5 48,-48 V 80 C 448,53.5 426.5,32 400,32 Z"
       id="path2"
       sodipodi:nodetypes="sssssssss"
       style="fill:#1b8172;fill-opacity:1" />
    <path
       style="fill:#ffffff;stroke-width:0.999999"
       d="m 201.96868,395.48013 c -14.86153,-0.76867 -33.33216,-2.96272 -45.81009,-5.44158 -15.74753,-3.12839 -27.21702,-6.70617 -37.13994,-11.5854 -7.89713,-3.88311 -13.38239,-8.57287 -13.99064,-11.96163 -0.18631,-1.03802 -0.26823,-14.25658 -0.18205,-29.37458 l 0.1567,-27.4873 2.46205,1.66623 c 15.18564,10.27709 46.30491,18.08 85.35108,21.40107 11.12055,0.94587 52.25046,0.95162 62.37194,0.009 40.527,-3.77541 68.93225,-10.83563 84.80395,-21.07833 l 3.00917,-1.94195 0.15671,27.45942 c 0.0862,15.10268 0.004,28.3087 -0.18205,29.34672 -0.24289,1.35316 -1.31194,2.84149 -3.77737,5.25886 -8.75472,8.58406 -32.97943,16.7015 -61.85196,20.72594 -22.74998,3.17104 -50.64918,4.28282 -75.3775,3.00381 z m 2.06311,-72.50483 c -1.50458,-0.10897 -6.55179,-0.46648 -11.216,-0.79447 -37.14842,-2.61222 -71.61029,-11.81309 -83.06229,-22.17656 -5.33989,-4.83232 -5.0244,-2.64024 -5.0244,-34.91028 v -28.21896 l 3.41952,2.21303 c 16.56405,10.71988 49.65951,18.5708 89.70826,21.28065 12.57717,0.85101 42.53207,0.71166 55.41592,-0.25781 39.55645,-2.97648 72.17863,-11.04977 87.64347,-21.68985 l 2.35815,-1.62245 v 28.22065 c 0,22.57219 -0.14911,28.57751 -0.74496,30.00357 -1.24498,2.97967 -6.96492,7.63973 -13.09909,10.6719 -15.86661,7.843 -40.03741,13.42714 -70.41279,16.26737 -8.43229,0.78845 -48.01779,1.51789 -54.98579,1.01321 z m -2.46205,-72.77486 c -1.35413,-0.11148 -6.03202,-0.4658 -10.39532,-0.78736 -35.43093,-2.61121 -68.2358,-11.31757 -81.03841,-21.50747 -5.651,-4.49776 -5.40691,-2.90548 -5.40691,-35.27053 0,-15.40224 0.14029,-28.00406 0.31177,-28.00406 0.17147,0 1.41813,0.7612 2.77035,1.69156 12.54763,8.633 40.68065,16.35383 72.42075,19.87518 29.42193,3.26415 64.48392,2.97105 93.83148,-0.78441 28.27193,-3.61781 52.86778,-10.66411 65.55611,-18.78074 1.72094,-1.10087 3.24731,-2.00159 3.39192,-2.00159 0.14462,0 0.26294,12.60182 0.26294,28.00406 0,27.46564 -0.0224,28.05039 -1.16671,30.41417 -1.58045,3.26476 -5.98321,6.65051 -13.33203,10.25241 -16.02853,7.85609 -39.29518,13.16379 -70.85234,16.16315 -6.00177,0.57044 -51.19433,1.16038 -56.3536,0.73563 z m 8.20684,-72.22311 c -49.40873,-1.76715 -89.73779,-11.1056 -101.34932,-23.46807 -4.09601,-4.3609 -4.6493,-8.54572 -1.70874,-12.92409 5.23074,-7.7884 23.43492,-15.25905 48.34583,-19.84023 58.78541,-10.8108 139.66243,-5.86191 173.71133,10.62943 9.20138,4.45663 13.79714,8.90303 14.35957,13.89294 0.40477,3.59104 -2.20239,7.85791 -6.86532,11.23571 -13.2626,9.60739 -44.28445,16.98265 -82.72357,19.66705 -8.69493,0.60722 -35.52678,1.10209 -43.76978,0.80726 z"
       id="path1552" />
  </g>
</svg>
