<?xml version="1.0" encoding="UTF-8" standalone="no"?>
<svg
   width="448"
   height="512"
   viewBox="0 0 448 512"
   version="1.1"
   id="svg8"
   inkscape:version="1.1.1 (c3084ef, 2021-09-22)"
   sodipodi:docname="naturalistauy-square.svg"
   xmlns:inkscape="http://www.inkscape.org/namespaces/inkscape"
   xmlns:sodipodi="http://sodipodi.sourceforge.net/DTD/sodipodi-0.dtd"
   xmlns="http://www.w3.org/2000/svg"
   xmlns:svg="http://www.w3.org/2000/svg"
   xmlns:rdf="http://www.w3.org/1999/02/22-rdf-syntax-ns#"
   xmlns:cc="http://creativecommons.org/ns#"
   xmlns:dc="http://purl.org/dc/elements/1.1/">
  <title
     id="title862">iNaturalist</title>
  <defs
     id="defs2" />
  <sodipodi:namedview
     id="base"
     pagecolor="#ffffff"
     bordercolor="#666666"
     borderopacity="1.0"
     inkscape:pageopacity="0.0"
     inkscape:pageshadow="2"
     inkscape:zoom="1.0606602"
     inkscape:cx="260.21529"
     inkscape:cy="279.54287"
     inkscape:document-units="px"
     inkscape:current-layer="layer6"
     inkscape:document-rotation="0"
     showgrid="true"
     units="px"
     showguides="true"
     inkscape:guide-bbox="true"
     inkscape:window-width="1440"
     inkscape:window-height="847"
     inkscape:window-x="2227"
     inkscape:window-y="63"
     inkscape:window-maximized="0"
     inkscape:pagecheckerboard="0">
    <inkscape:grid
       type="xygrid"
       id="grid10"
       empspacing="4" />
    <sodipodi:guide
       position="448,416"
       orientation="0,1"
       id="guide832"
       inkscape:label=""
       inkscape:locked="true"
       inkscape:color="rgb(0,0,255)" />
    <sodipodi:guide
       position="448,96"
       orientation="0,1"
       id="guide834"
       inkscape:label=""
       inkscape:locked="true"
       inkscape:color="rgb(0,0,255)" />
    <sodipodi:guide
       position="448,64"
       orientation="0,1"
       id="guide836"
       inkscape:label="baseline"
       inkscape:locked="true"
       inkscape:color="rgb(0,0,255)" />
    <sodipodi:guide
       id="guide835"
       orientation="1,0"
       position="64,512" />
    <sodipodi:guide
       id="guide837"
       orientation="1,0"
       position="384,512" />
  </sodipodi:namedview>
  <metadata
     id="metadata5">
    <rdf:RDF>
      <cc:Work
         rdf:about="">
        <dc:format>image/svg+xml</dc:format>
        <dc:type
           rdf:resource="http://purl.org/dc/dcmitype/StillImage" />
        <dc:title>iNaturalist</dc:title>
        <cc:license
           rdf:resource="http://scripts.sil.org/OFL" />
        <dc:subject>
          <rdf:Bag>
            <rdf:li>iNaturalist</rdf:li>
          </rdf:Bag>
        </dc:subject>
      </cc:Work>
      <cc:License
         rdf:about="http://scripts.sil.org/OFL">
        <cc:permits
           rdf:resource="http://scripts.sil.org/pub/OFL/Reproduction" />
        <cc:permits
           rdf:resource="http://scripts.sil.org/pub/OFL/Distribution" />
        <cc:permits
           rdf:resource="http://scripts.sil.org/pub/OFL/Embedding" />
        <cc:permits
           rdf:resource="http://scripts.sil.org/pub/OFL/DerivativeWorks" />
        <cc:requires
           rdf:resource="http://scripts.sil.org/pub/OFL/Notice" />
        <cc:requires
           rdf:resource="http://scripts.sil.org/pub/OFL/Attribution" />
        <cc:requires
           rdf:resource="http://scripts.sil.org/pub/OFL/ShareAlike" />
        <cc:requires
           rdf:resource="http://scripts.sil.org/pub/OFL/DerivativeRenaming" />
        <cc:requires
           rdf:resource="http://scripts.sil.org/pub/OFL/BundlingWhenSelling" />
      </cc:License>
    </rdf:RDF>
  </metadata>
  <g
     inkscape:groupmode="layer"
     id="layer6"
     inkscape:label="icon">
    <path
       d="M 48,32 C 21.5,32 0,53.5 0,80 v 352 c 0,26.5 21.5,48 48,48 h 352 c 26.5,0 48,-21.5 48,-48 V 80 C 448,53.5 426.5,32 400,32 Z"
       id="path2"
       sodipodi:nodetypes="sssssssss"
       style="fill:#1b8172;fill-opacity:1" />
    <path
       d="m 293.2202,114.91078 c 2.61721,0 4.85822,3.17236 6.5859,6.89035 l 0.36231,0.8041 c 0.0591,0.13504 0.11752,0.27064 0.17517,0.40652 l 0.33818,0.81838 v 0 l 0.32171,0.82074 v 0 l 0.30496,0.81733 v 0 l 0.28788,0.80819 v 0 l 0.27052,0.7933 v 0 l 0.37259,1.14948 v 0 l 0.33182,1.08367 v 0 l 0.29006,0.99847 v 0 l 0.16968,0.60876 v 0 c 4.06882,0.77723 8.7617,2.05102 13.77475,3.70017 l 1.89432,0.63579 v 0 l 1.92078,0.66955 c 3.22135,1.14328 6.5381,2.42135 9.87606,3.80462 l 2.00475,0.84233 v 0 l 2.00626,0.86618 c 3.00877,1.31641 6.01068,2.70846 8.95166,4.15455 l 1.95104,0.97182 c 1.61735,0.81615 3.21219,1.6475 4.77524,2.49034 l 1.85981,1.0167 v 0 l 1.82573,1.02633 c 13.85755,7.90175 24.39669,16.52679 24.39669,22.99496 0,16.32446 -6.5988,28.58181 -13.50487,36.40432 l -0.76827,0.8509 c -2.30674,2.49782 -4.62172,4.50139 -6.71192,5.99705 l -0.68809,0.47973 c -0.22638,0.15365 -0.44965,0.30096 -0.66952,0.44198 l -0.64904,0.40416 c -0.42544,0.25678 -0.83594,0.48827 -1.22896,0.6943 l -0.57606,0.28993 c -1.31207,0.63188 -2.3942,0.95103 -3.13673,0.95103 -3.99451,0 -7.56721,-1.26724 -11.30839,-2.80999 l -3.8192,-1.59783 v 0 l -1.32069,-0.53533 c -4.45282,-1.76857 -9.4375,-3.33308 -15.76372,-3.33308 l -0.52929,0.005 v 0 l -0.52471,0.0163 v 0 l -0.51986,0.0287 v 0 l -0.51478,0.0423 c -0.0853,0.008 -0.17048,0.0172 -0.2554,0.0267 l -0.50665,0.0653 c -0.16796,0.0245 -0.33494,0.0518 -0.50095,0.082 l -0.49496,0.1 c -4.50903,1.00397 -8.23335,4.44361 -10.3006,14.68271 l -0.21891,1.14417 v 0 l -0.20549,1.19937 c -0.0332,0.20457 -0.0657,0.41149 -0.0977,0.6208 l -0.18492,1.28455 c -0.089,0.65675 -0.1727,1.33539 -0.25103,2.03662 l -0.14946,1.43278 c -0.0237,0.2439 -0.0468,0.49034 -0.0692,0.73939 l -0.12729,1.5255 v 0 l -0.11225,1.5889 c -0.0349,0.54035 -0.0673,1.09146 -0.0971,1.65356 l -0.0814,1.71945 c -0.0245,0.58428 -0.0464,1.17975 -0.0657,1.78662 l -0.0496,1.85505 c -0.006,0.31494 -0.0124,0.6328 -0.0188,0.95357 l -0.0251,1.96004 v 0 l -0.0109,2.71996 v 0 l -0.0318,2.44009 v 0 l -0.035,1.65719 v 0 l -0.0462,1.55453 v 0 l -0.0367,0.8793 c -0.006,0.13194 -0.014,0.25567 -0.02,0.37003 l -0.0213,0.3136 c 0.008,12.037 -2.50083,22.09886 -5.86575,31.57438 l -0.66153,1.82704 c -0.22377,0.60681 -0.45068,1.21155 -0.68024,1.81461 l -0.69628,1.80446 v 0 l -0.70967,1.79652 v 0 l -1.08369,2.68481 v 0 l -2.72233,6.62505 -1.38559,3.41727 v 0 l -0.68276,1.72146 c -0.11303,0.28779 -0.22569,0.57603 -0.33788,0.86477 l -0.6673,1.73884 v 0 l -0.65416,1.7528 c -3.88097,10.56258 -6.92888,21.98301 -6.92888,36.12089 0,8.40977 0.94383,15.13179 2.20548,21.22933 l 0.3515,1.64828 v 0 l 0.36444,1.62211 v 0 l 0.56475,2.39457 v 0 l 1.54485,6.27338 7.88668,3.35961 c 3.02567,1.28889 5.02731,4.19981 5.16643,7.46413 l 0.008,0.36409 h -26.55319 c -4.36363,0 -8.28836,-2.61124 -9.98616,-6.60264 l -0.15256,-0.37819 -6.81968,-17.8563 -8.31402,4.97036 c 1.69679,-1.93309 2.65842,-5.91852 3.18106,-10.45973 l 0.12651,-1.19629 c 0.0195,-0.20115 0.0383,-0.40311 0.0561,-0.60575 l 0.0989,-1.22304 v 0 l 0.0819,-1.23348 c 0.0124,-0.20613 0.0239,-0.41245 0.0349,-0.61883 l 0.0586,-1.2381 v 0 l 0.0619,-1.84723 v 0 l 0.0139,-0.61014 -10.27595,6.14406 c 1.49095,-1.69877 2.41452,-4.98197 2.97132,-8.83424 l 0.1493,-1.11526 v 0 l 0.13039,-1.14096 c 0.0202,-0.19202 0.0397,-0.38488 0.0585,-0.57849 l 0.10387,-1.16966 v 0 l 0.0876,-1.1822 c 0.014,-0.19779 0.026,-0.39589 0.038,-0.59418 l 0.0651,-1.19118 v 0 l 0.0513,-1.19056 v 0 l 0.0386,-1.18471 v 0 l 0.027,-1.17357 v 0 l 0.0164,-1.15718 v 0 l 0.008,-1.69352 v 0 c -6.82009,8.44165 -18.7568,17.17974 -33.3563,23.44609 l -0.97722,0.41405 -1.91187,-6.73845 -4.2993,1.87978 v 0 l -5.83126,2.52138 v 0 l -7.89098,3.3619 v 0 l -5.88331,2.46998 v 0 l -7.36981,3.05036 v 0 l -7.99073,3.25109 v 0 l -6.19186,2.47545 v 0 l -5.99975,2.35094 27.51401,5.58516 c 5.65801,1.14853 10.28019,5.18807 12.18765,10.6117 l 0.15613,0.46827 h -70.75417 c -4.09674,0 -7.48627,-3.18764 -7.73757,-7.27667 -0.62231,-10.12653 -2.85323,-18.76308 -6.69277,-25.90969 -3.51385,4.60769 -8.27404,7.64806 -12.797246,9.64476 l -0.844971,0.36227 v 0 l -0.837235,0.33859 v 0 l -0.827327,0.31565 c -0.273885,0.1014 -0.545753,0.19928 -0.815265,0.2935 l -0.801017,0.2721 c -0.132252,0.0436 -0.263698,0.0864 -0.394477,0.12822 l -0.775574,0.24145 v 0 l -0.755899,0.22198 v 0 l -0.734037,0.20326 v 0 l -1.055335,0.27149 v 0 l -0.993952,0.23373 v 0 l -0.925222,0.19854 v 0 l -0.849188,0.16592 v 0 l -1.00124,0.17498 v 0 l -0.835622,0.12776 v 0 l -1.011504,0.12838 v 0 l -0.357886,0.0355 v 0 c 0.32618,-1.31708 0.623631,-2.636 0.894585,-3.95246 l 0.312536,-1.57829 c 0.150082,-0.78827 0.290862,-1.57504 0.422928,-2.35935 l 0.252581,-1.56509 c 0.04016,-0.26021 0.07938,-0.52009 0.117833,-0.77959 l 0.219123,-1.55219 c 0.03473,-0.25785 0.06853,-0.51527 0.101554,-0.77219 l 0.187571,-1.53555 v 0 l 0.167571,-1.52239 v 0 l 0.148377,-1.50755 c 0.02326,-0.24993 0.04558,-0.49916 0.06729,-0.74769 l 0.121244,-1.48219 v 0 l 0.10419,-1.4632 v 0 l 0.08806,-1.44256 v 0 l 0.07272,-1.42024 v 0 l 0.05814,-1.39629 v 0 l 0.0445,-1.37065 v 0 l 0.03163,-1.34337 v 0 l 0.02527,-1.96023 v 0 l 0.0011,-1.8895 v 0 l -0.02016,-1.81313 v 0 l -0.03876,-1.73118 v 0 l -0.05427,-1.6436 v 0 l -0.04357,-1.04431 v 0 l -0.100778,-1.95775 v 0 l -0.113337,-1.77216 v 0 l -0.119228,-1.57331 v 0 l -0.147136,-1.6667 v 0 l -0.132718,-1.30923 v 0 l -0.18368,-1.54622 -13.421398,14.30377 c -1.439392,-9.71444 -2.082947,-18.84152 -2.082947,-27.41645 0,-48.87788 31.939756,-87.32929 75.151576,-108.35827 l 0.74145,-0.11132 v 0 l 1.46085,-0.20627 v 0 l 1.43102,-0.18504 v 0 l 1.4007,-0.16472 v 0 l 1.36988,-0.14528 c 0.22571,-0.0226 0.45012,-0.0445 0.67323,-0.0656 l 1.32271,-0.11768 v 0 l 1.29063,-0.10031 v 0 l 1.25807,-0.0839 v 0 l 1.22498,-0.0682 v 0 l 1.19141,-0.0535 v 0 l 1.15734,-0.0395 c 0.19004,-0.006 0.37862,-0.0109 0.56574,-0.0155 l 1.10529,-0.0203 v 0 l 1.06997,-0.009 v 0 l 1.03412,0.003 v 0 l 0.99782,0.0124 v 0 l 0.96097,0.0214 v 0 l 0.92364,0.0298 v 0 l 0.88583,0.0372 v 0 l 0.84748,0.0437 v 0 l 1.19827,0.0761 v 0 l 1.1092,0.0861 v 0 l 1.01846,0.0932 v 0 l 1.21385,0.13008 v 0 l 1.04552,0.13054 v 0 l 1.24387,0.1817 v 0 l 1.32444,0.23867 v 0 c -2.60758,-3.3481 -5.7638,-6.29491 -9.00033,-8.60007 l 1.54265,-0.49684 v 0 l 3.12668,-0.45359 v 0 l 3.78829,-0.52926 v 0 l 4.35838,-0.58149 v 0 l 4.1396,-0.5251 v 0 l 4.53299,-0.54433 v 0 l 4.76031,-0.5364 v 0 l 4.777,-0.50054 v 0 l 5.33213,-0.5105 v 0 l 7.19617,-0.58862 v 0 l 0.57026,-0.0386 v 0 c -5.06809,-2.8874 -12.42772,-3.66885 -18.76937,-3.69198 14.22514,-6.59859 24.86985,-14.83583 34.01731,-23.07937 l 1.59913,-1.45448 v 0 l 1.57061,-1.45261 v 0 l 1.5446,-1.44876 v 0 l 2.27373,-2.16154 v 0 l 6.59045,-6.33838 v 0 l 1.43385,-1.36595 v 0 l 1.42822,-1.34615 v 0 l 1.42513,-1.32433 v 0 l 1.42457,-1.30057 c 0.95009,-0.85866 1.9015,-1.70013 2.85763,-2.52175 -0.0259,-3.00632 0.31715,-6.05722 0.92749,-8.98326 l 0.22635,-1.02726 v 0 l 0.24754,-1.01522 c 0.34376,-1.34491 0.74142,-2.65332 1.18238,-3.90761 l 0.33867,-0.93027 v 0 l 0.35391,-0.90834 c 0.301,-0.74733 0.61685,-1.47006 0.94494,-2.1639 l 0.39945,-0.81844 c 0.53999,-1.07203 1.1087,-2.06564 1.69556,-2.96319 l 0.44336,-0.65487 c 2.0834,-2.96943 4.35644,-4.70791 6.36484,-4.45845 2.50783,0.31105 4.89029,3.1419 6.81765,6.34185 l 0.47216,0.80645 v 0 l 0.45206,0.81435 v 0 l 0.43082,0.81478 c 0.0699,0.13551 0.13907,0.27055 0.20707,0.40524 l 0.39677,0.80145 v 0 l 0.37268,0.78323 v 0 l 0.34741,0.75753 v 0 l 0.321,0.72439 v 0 l 0.29345,0.68374 v 0 l 0.38601,0.93312 v 0 c 3.79143,-1.17269 7.87908,-1.95617 12.3589,-2.27599 l 0.17745,-0.71324 v 0 l 0.19238,-0.74313 v 0 l 0.20723,-0.76803 v 0 l 0.22201,-0.78787 v 0 l 0.23676,-0.80269 v 0 l 0.25142,-0.8125 v 0 l 0.26604,-0.8173 v 0 l 0.28058,-0.81705 v 0 l 0.29506,-0.81179 c 0.0504,-0.13458 0.1014,-0.26874 0.15288,-0.40235 l 0.31667,-0.79449 v 0 l 0.33102,-0.77666 v 0 l 0.34528,-0.75382 c 1.46842,-3.08636 3.30675,-5.44708 5.49504,-5.44708 z m 70.02959,56.01475 -0.59107,0.005 v 0 l -0.62292,0.0155 v 0 l -0.64898,0.026 v 0 l -0.66923,0.0386 v 0 l -0.6837,0.0524 c -0.22968,0.0199 -0.46078,0.0423 -0.69239,0.0674 l -0.69528,0.0837 c -0.11581,0.0155 -0.23146,0.0315 -0.34691,0.0484 l -0.68874,0.11039 c -3.07771,0.53924 -5.80361,1.6661 -5.80361,3.887 0,3.07898 1.51664,7.14109 3.5078,10.82028 l 0.46744,0.84163 c 0.63323,1.11146 1.30381,2.17671 1.98135,3.15597 l 0.50899,0.71769 c 0.33956,0.4669 0.67898,0.9098 1.01445,1.32375 l 0.49977,0.59856 v 0 l 0.49099,0.55141 c 1.29511,1.40417 2.46633,2.26545 3.27084,2.26545 0.90522,0 1.91962,-1.17695 2.88826,-3.03635 l 0.32097,-0.6444 c 0.1062,-0.22278 0.21179,-0.4533 0.3163,-0.69088 l 0.31037,-0.7333 c 0.0512,-0.12558 0.10202,-0.25264 0.15256,-0.38128 l 0.29907,-0.78928 v 0 l 0.28993,-0.82153 c 0.0474,-0.13938 0.0946,-0.27993 0.14109,-0.42158 l 0.27383,-0.86226 v 0 l 0.26153,-0.8843 c 0.0425,-0.149 0.0845,-0.29876 0.12574,-0.44916 l 0.24066,-0.90978 c 0.0389,-0.15272 0.0771,-0.30597 0.11458,-0.4596 l 0.21692,-0.92609 v 0 l 0.19951,-0.93187 c 0.0634,-0.31114 0.12372,-0.62256 0.18081,-0.9336 l 0.16084,-0.93122 v 0 l 0.13954,-0.92482 v 0 l 0.11706,-0.9143 c 0.14062,-1.21029 0.21774,-2.38173 0.21774,-3.47091 0,-3.15467 -1.34962,-4.15128 -4.69075,-4.41141 l -0.67171,-0.0416 c -0.2323,-0.0108 -0.47308,-0.0194 -0.72248,-0.0254 l -0.77427,-0.0108 c -0.1335,-9.2e-4 -0.26905,-0.001 -0.4069,-0.001 z M 298.67064,147.4699 c -3.9913,0 -7.2269,3.27052 -7.2269,7.30492 0,4.0344 3.2356,7.30492 7.2269,7.30492 3.99132,0 7.2269,-3.27052 7.2269,-7.30492 0,-4.0344 -3.23558,-7.30492 -7.2269,-7.30492 z"
       id="path1832"
       style="fill:#ffffff;fill-rule:evenodd;stroke:none;stroke-width:0.999999" />
  </g>
</svg>
