<?xml version="1.0" encoding="UTF-8" standalone="no"?>
<svg
   width="448"
   height="512"
   viewBox="0 0 448 512"
   version="1.1"
   id="svg8"
   inkscape:version="1.2.1 (9c6d41e, 2022-07-14)"
   sodipodi:docname="obp-square.svg"
   xmlns:inkscape="http://www.inkscape.org/namespaces/inkscape"
   xmlns:sodipodi="http://sodipodi.sourceforge.net/DTD/sodipodi-0.dtd"
   xmlns="http://www.w3.org/2000/svg"
   xmlns:svg="http://www.w3.org/2000/svg"
   xmlns:rdf="http://www.w3.org/1999/02/22-rdf-syntax-ns#"
   xmlns:cc="http://creativecommons.org/ns#"
   xmlns:dc="http://purl.org/dc/elements/1.1/">
  <title
     id="title837">Open Book Publisher</title>
  <defs
     id="defs2" />
  <sodipodi:namedview
     id="base"
     pagecolor="#ffffff"
     bordercolor="#666666"
     borderopacity="1.0"
     inkscape:pageopacity="0.0"
     inkscape:pageshadow="2"
     inkscape:zoom="0.75"
     inkscape:cx="221.33333"
     inkscape:cy="255.33333"
     inkscape:document-units="px"
     inkscape:current-layer="layer6"
     inkscape:document-rotation="0"
     showgrid="true"
     units="px"
     showguides="true"
     inkscape:guide-bbox="true"
     inkscape:window-width="1297"
     inkscape:window-height="787"
     inkscape:window-x="0"
     inkscape:window-y="25"
     inkscape:window-maximized="0"
     inkscape:pagecheckerboard="0"
     inkscape:showpageshadow="2"
     inkscape:deskcolor="#d1d1d1">
    <inkscape:grid
       type="xygrid"
       id="grid10"
       empspacing="4" />
    <sodipodi:guide
       position="448,416"
       orientation="0,1"
       id="guide832"
       inkscape:label=""
       inkscape:locked="false"
       inkscape:color="rgb(0,0,255)" />
    <sodipodi:guide
       position="448,96"
       orientation="0,1"
       id="guide834"
       inkscape:label=""
       inkscape:locked="false"
       inkscape:color="rgb(0,0,255)" />
    <sodipodi:guide
       position="448,64"
       orientation="0,1"
       id="guide836"
       inkscape:label="baseline"
       inkscape:locked="false"
       inkscape:color="rgb(0,0,255)" />
    <sodipodi:guide
       id="guide835"
       orientation="1,0"
       position="64,512"
       inkscape:locked="false" />
    <sodipodi:guide
       id="guide837"
       orientation="1,0"
       position="384,512"
       inkscape:locked="false" />
  </sodipodi:namedview>
  <metadata
     id="metadata5">
    <rdf:RDF>
      <cc:Work
         rdf:about="">
        <dc:format>image/svg+xml</dc:format>
        <dc:type
           rdf:resource="http://purl.org/dc/dcmitype/StillImage" />
        <dc:title>Open Book Publisher</dc:title>
        <cc:license
           rdf:resource="http://scripts.sil.org/OFL" />
        <dc:subject>
          <rdf:Bag>
            <rdf:li>Open Book Publisher</rdf:li>
          </rdf:Bag>
        </dc:subject>
      </cc:Work>
      <cc:License
         rdf:about="http://scripts.sil.org/OFL">
        <cc:permits
           rdf:resource="http://scripts.sil.org/pub/OFL/Reproduction" />
        <cc:permits
           rdf:resource="http://scripts.sil.org/pub/OFL/Distribution" />
        <cc:permits
           rdf:resource="http://scripts.sil.org/pub/OFL/Embedding" />
        <cc:permits
           rdf:resource="http://scripts.sil.org/pub/OFL/DerivativeWorks" />
        <cc:requires
           rdf:resource="http://scripts.sil.org/pub/OFL/Notice" />
        <cc:requires
           rdf:resource="http://scripts.sil.org/pub/OFL/Attribution" />
        <cc:requires
           rdf:resource="http://scripts.sil.org/pub/OFL/ShareAlike" />
        <cc:requires
           rdf:resource="http://scripts.sil.org/pub/OFL/DerivativeRenaming" />
        <cc:requires
           rdf:resource="http://scripts.sil.org/pub/OFL/BundlingWhenSelling" />
      </cc:License>
    </rdf:RDF>
  </metadata>
  <g
     inkscape:groupmode="layer"
     id="layer6"
     inkscape:label="icon">
    <path
       d="M 48,32 C 21.5,32 0,53.5 0,80 v 352 c 0,26.5 21.5,48 48,48 h 352 c 26.5,0 48,-21.5 48,-48 V 80 C 448,53.5 426.5,32 400,32 Z"
       id="path2"
       style="fill:#1b8172;fill-opacity:1"
       sodipodi:nodetypes="sssssssss" />
    <path
       style="fill:#ffffff;stroke-width:0.999997"
       d="m 212.57042,372.5625 c -11.43858,-13.42899 -30.53146,-27.79408 -49.0274,-36.88724 -18.78919,-9.23731 -36.45697,-14.29769 -56.84772,-16.28223 -3.80488,-0.37031 -6.953544,-0.71598 -6.997022,-0.76815 -0.04348,-0.0521 0.06365,-41.4538 0.238069,-92.0036 l 0.317113,-91.90872 3.6721,0.36254 c 22.51969,2.22334 47.64124,10.73944 66.65412,22.59548 16.38381,10.21661 33.30246,25.99087 44.08887,41.10666 l 2.71438,3.80386 v 87.30067 c 0,48.01536 -0.20303,87.29405 -0.45117,87.28596 -0.24815,-0.008 -2.21074,-2.08043 -4.36134,-4.60523 z m 18.64846,-82.86369 v -87.6353 l 3.40622,-4.63011 c 14.56997,-19.80502 33.29871,-35.65414 54.94541,-46.49731 17.86246,-8.9476 33.81052,-13.51441 55.4942,-15.89107 l 3.45899,-0.37913 v 92.08244 c 0,87.41895 -0.0535,92.08246 -1.05642,92.08246 -3.09459,0 -17.61829,2.02342 -24.1845,3.36934 -9.03697,1.85238 -24.46012,6.85245 -32.93678,10.67786 -19.25399,8.68908 -36.41446,20.82543 -51.20436,36.21314 l -7.92276,8.24298 z m 25.56644,81.67834 c 16.19595,-15.1939 37.63642,-27.26956 59.17369,-33.32766 11.27025,-3.17016 25.92648,-5.38275 35.65556,-5.38275 5.10113,0 7.93063,-1.10593 9.52655,-3.72357 1.20061,-1.96924 1.21407,-2.82595 1.21629,-77.40402 l 0.002,-75.41274 2.25586,0.42079 c 1.24072,0.23143 4.75987,1.22173 7.82032,2.20067 l 5.56446,1.77987 v 94.1164 c 0,51.76401 -0.20712,94.11639 -0.46028,94.11639 -0.25315,0 -3.97532,-0.79174 -8.27149,-1.75944 -17.05949,-3.84257 -30.71523,-5.13776 -49.01829,-4.6492 -22.54695,0.60185 -39.77854,3.69071 -60.45711,10.83727 l -7.82032,2.70273 z m -68.57821,1.47355 c -8.54503,-3.06022 -22.65698,-6.66499 -32.18362,-8.22102 -12.9536,-2.11575 -21.89029,-2.66408 -37.76598,-2.31721 -15.77421,0.34465 -25.315593,1.43771 -38.331768,4.39124 -3.639457,0.82584 -7.36163,1.66031 -8.271495,1.85438 l -1.654298,0.35285 0.0027,-94.37023 0.0027,-94.37023 7.065745,-2.05773 c 3.886159,-1.13175 7.404124,-2.17585 7.817698,-2.32022 0.598967,-0.20909 0.751954,15.11664 0.751954,75.32793 0,82.39377 -0.198551,77.68909 3.377616,80.03229 1.282849,0.84055 3.612397,1.17502 10.829875,1.55497 28.457333,1.49804 56.330533,11.34593 78.596393,27.76887 4.81262,3.54972 16.36235,13.29795 17.02416,14.36876 0.46092,0.7458 0.15921,0.66293 -7.26153,-1.99465 z"
       id="path1046" />
  </g>
</svg>
