<?xml version="1.0" encoding="UTF-8" standalone="no"?>
<svg
   width="448"
   height="512"
   viewBox="0 0 448 512"
   version="1.1"
   id="svg8"
   inkscape:version="1.1.1 (c3084ef, 2021-09-22)"
   sodipodi:docname="obp-square.svg"
   xmlns:inkscape="http://www.inkscape.org/namespaces/inkscape"
   xmlns:sodipodi="http://sodipodi.sourceforge.net/DTD/sodipodi-0.dtd"
   xmlns="http://www.w3.org/2000/svg"
   xmlns:svg="http://www.w3.org/2000/svg"
   xmlns:rdf="http://www.w3.org/1999/02/22-rdf-syntax-ns#"
   xmlns:cc="http://creativecommons.org/ns#"
   xmlns:dc="http://purl.org/dc/elements/1.1/">
  <title
     id="title837">Open Book Publisher</title>
  <defs
     id="defs2" />
  <sodipodi:namedview
     id="base"
     pagecolor="#ffffff"
     bordercolor="#666666"
     borderopacity="1.0"
     inkscape:pageopacity="0.0"
     inkscape:pageshadow="2"
     inkscape:zoom="0.75"
     inkscape:cx="223.33333"
     inkscape:cy="255.33333"
     inkscape:document-units="px"
     inkscape:current-layer="layer6"
     inkscape:document-rotation="0"
     showgrid="true"
     units="px"
     showguides="true"
     inkscape:guide-bbox="true"
     inkscape:window-width="1297"
     inkscape:window-height="847"
     inkscape:window-x="0"
     inkscape:window-y="25"
     inkscape:window-maximized="0"
     inkscape:pagecheckerboard="0">
    <inkscape:grid
       type="xygrid"
       id="grid10"
       empspacing="4" />
    <sodipodi:guide
       position="448,416"
       orientation="0,1"
       id="guide832"
       inkscape:label=""
       inkscape:locked="true"
       inkscape:color="rgb(0,0,255)" />
    <sodipodi:guide
       position="448,96"
       orientation="0,1"
       id="guide834"
       inkscape:label=""
       inkscape:locked="true"
       inkscape:color="rgb(0,0,255)" />
    <sodipodi:guide
       position="448,64"
       orientation="0,1"
       id="guide836"
       inkscape:label="baseline"
       inkscape:locked="true"
       inkscape:color="rgb(0,0,255)" />
    <sodipodi:guide
       id="guide835"
       orientation="1,0"
       position="64,512" />
    <sodipodi:guide
       id="guide837"
       orientation="1,0"
       position="384,512" />
  </sodipodi:namedview>
  <metadata
     id="metadata5">
    <rdf:RDF>
      <cc:Work
         rdf:about="">
        <dc:format>image/svg+xml</dc:format>
        <dc:type
           rdf:resource="http://purl.org/dc/dcmitype/StillImage" />
        <dc:title>Open Book Publisher</dc:title>
        <cc:license
           rdf:resource="http://scripts.sil.org/OFL" />
        <dc:subject>
          <rdf:Bag>
            <rdf:li>Open Book Publisher</rdf:li>
          </rdf:Bag>
        </dc:subject>
      </cc:Work>
      <cc:License
         rdf:about="http://scripts.sil.org/OFL">
        <cc:permits
           rdf:resource="http://scripts.sil.org/pub/OFL/Reproduction" />
        <cc:permits
           rdf:resource="http://scripts.sil.org/pub/OFL/Distribution" />
        <cc:permits
           rdf:resource="http://scripts.sil.org/pub/OFL/Embedding" />
        <cc:permits
           rdf:resource="http://scripts.sil.org/pub/OFL/DerivativeWorks" />
        <cc:requires
           rdf:resource="http://scripts.sil.org/pub/OFL/Notice" />
        <cc:requires
           rdf:resource="http://scripts.sil.org/pub/OFL/Attribution" />
        <cc:requires
           rdf:resource="http://scripts.sil.org/pub/OFL/ShareAlike" />
        <cc:requires
           rdf:resource="http://scripts.sil.org/pub/OFL/DerivativeRenaming" />
        <cc:requires
           rdf:resource="http://scripts.sil.org/pub/OFL/BundlingWhenSelling" />
      </cc:License>
    </rdf:RDF>
  </metadata>
  <g
     inkscape:groupmode="layer"
     id="layer6"
     inkscape:label="icon">
    <path
       d="M 48,32 C 21.5,32 0,53.5 0,80 v 352 c 0,26.5 21.5,48 48,48 h 352 c 26.5,0 48,-21.5 48,-48 V 80 C 448,53.5 426.5,32 400,32 Z"
       id="path2"
       style="fill:#1b8172;fill-opacity:1"
       sodipodi:nodetypes="sssssssss" />
    <path
       style="fill:#ffffff;stroke-width:1"
       d="m 211.96581,378.72903 c -12.04372,-14.13942 -32.14667,-29.26447 -51.62111,-38.83869 -19.7832,-9.72599 -38.38566,-15.05409 -59.85515,-17.14361 -4.006172,-0.3899 -7.321407,-0.75386 -7.367185,-0.80879 -0.04578,-0.0549 0.06702,-43.64684 0.250664,-96.87089 l 0.333893,-96.77099 3.866358,0.38172 c 23.71106,2.34096 50.16162,11.30759 70.18034,23.79085 17.25057,10.7571 35.06427,27.36587 46.42132,43.28134 l 2.85798,4.0051 v 91.91915 c 0,50.55553 -0.21377,91.91219 -0.47504,91.90368 -0.26128,-0.008 -2.3277,-2.1905 -4.59207,-4.84887 z m 19.63503,-87.24745 v -92.27149 l 3.58642,-4.87506 c 15.34076,-20.85276 35.06032,-37.54035 57.8522,-48.95716 18.80744,-9.42096 35.5992,-14.22937 58.43002,-16.73176 l 3.64198,-0.39919 v 96.9539 c 0,92.0437 -0.0563,96.95392 -1.11231,96.95392 -3.2583,0 -18.55035,2.13047 -25.46393,3.54759 -9.51506,1.95038 -25.75414,7.21497 -34.67925,11.24275 -20.27259,9.14876 -38.3409,21.92717 -53.91324,38.12894 l -8.34189,8.67906 z m 26.91898,85.99939 c 17.05277,-15.9977 39.62751,-28.7122 62.30417,-35.0908 11.86649,-3.33787 27.29808,-5.66751 37.54186,-5.66751 5.37099,0 8.35018,-1.16444 10.03053,-3.92056 1.26413,-2.07342 1.2783,-2.97545 1.28064,-81.49894 l 0.002,-79.40232 2.3752,0.44305 c 1.30636,0.24367 5.01168,1.28636 8.23404,2.31709 l 5.85884,1.87403 v 99.09546 c 0,54.5025 -0.21808,99.09546 -0.48463,99.09546 -0.26654,0 -4.18563,-0.83363 -8.70908,-1.85252 -17.96199,-4.04586 -32.34016,-5.40957 -51.61152,-4.89516 -23.73975,0.63369 -41.88295,3.88596 -63.65548,11.4106 l -8.23404,2.84571 z m -72.20622,1.55151 c -8.99709,-3.22212 -23.8556,-7.01759 -33.88624,-8.65594 -13.63888,-2.22768 -23.04835,-2.80502 -39.76392,-2.4398 -16.608721,0.36289 -26.65487,1.51377 -40.359643,4.62355 -3.831996,0.86953 -7.751084,1.74815 -8.709083,1.95249 l -1.741816,0.37151 0.0028,-99.36272 0.0028,-99.36272 7.439546,-2.16659 c 4.091749,-1.19162 7.795826,-2.29096 8.23128,-2.44297 0.630654,-0.22015 0.791735,15.91636 0.791735,79.31302 0,86.75267 -0.209056,81.7991 3.556302,84.26626 1.350716,0.88502 3.803505,1.23719 11.402811,1.63724 29.962818,1.57729 59.310608,11.94616 82.754398,29.23793 5.06722,3.73751 17.22797,14.00145 17.92479,15.12891 0.48531,0.78526 0.16764,0.698 -7.64568,-2.10017 z"
       id="path1046" />
  </g>
</svg>
